<?xml version="1.0" encoding="UTF-8"?>
<svg xmlns="http://www.w3.org/2000/svg" width="640" height="400" viewBox="0 0 640 400" role="img" aria-labelledby="title desc">
<title id="title">Activos fijos NIIF/Fiscal</title>
<desc id="desc">Ilustracion profesional para la tarjeta Activos fijos NIIF/Fiscal del portal Powerful Control System.</desc>

<defs>
  <linearGradient id="bg" x1="0" y1="0" x2="1" y2="1"><stop offset="0" stop-color="#334155"/><stop offset="1" stop-color="#a855f7"/></linearGradient>
  <linearGradient id="panel" x1="0" y1="0" x2="0" y2="1"><stop offset="0" stop-color="#ffffff" stop-opacity=".95"/><stop offset="1" stop-color="#f8fafc" stop-opacity=".90"/></linearGradient>
  <filter id="shadow" x="-20%" y="-20%" width="140%" height="150%"><feDropShadow dx="0" dy="14" stdDeviation="16" flood-color="#020617" flood-opacity=".26"/></filter>
</defs>
<rect width="640" height="400" rx="34" fill="url(#bg)"/>
<circle cx="92" cy="70" r="120" fill="#fff" opacity=".12"/>
<circle cx="560" cy="335" r="150" fill="#020617" opacity=".14"/>
<path d="M44 315 C150 248 224 344 336 278 C432 222 516 256 606 196 L606 400 L44 400 Z" fill="#fff" opacity=".14"/>
<rect x="54" y="45" width="532" height="310" rx="28" fill="url(#panel)" filter="url(#shadow)"/>
<rect x="84" y="76" width="204" height="18" rx="9" fill="#0f172a" opacity=".12"/>
<rect x="84" y="107" width="138" height="12" rx="6" fill="#0f172a" opacity=".10"/>

<g transform="translate(106 150)"><rect width="118" height="138" rx="16" fill="#fff" stroke="#0f172a" stroke-width="7"/><rect x="24" y="24" width="70" height="22" rx="7" fill="#a855f7"/><g fill="#0f172a" opacity=".35"><rect x="24" y="68" width="18" height="18" rx="4"/><rect x="50" y="68" width="18" height="18" rx="4"/><rect x="76" y="68" width="18" height="18" rx="4"/><rect x="24" y="98" width="18" height="18" rx="4"/><rect x="50" y="98" width="18" height="18" rx="4"/><rect x="76" y="98" width="18" height="18" rx="4"/></g></g>
<g transform="translate(328 104)"><rect x="38" y="70" width="166" height="124" rx="18" fill="#f1f5f9" stroke="#0f172a" stroke-width="8"/><path d="M70 70 V42 H172 V70" stroke="#0f172a" stroke-width="10" stroke-linecap="round" stroke-linejoin="round" fill="none" opacity=".9"/><circle cx="86" cy="218" r="24" fill="#a78bfa" stroke="#0f172a" stroke-width="7"/><circle cx="176" cy="218" r="24" fill="#a78bfa" stroke="#0f172a" stroke-width="7"/><path d="M74 124 H168 M74 158 H138" stroke="#0f172a" stroke-width="10" stroke-linecap="round" opacity=".24"/></g>
<path d="M86 310 H250" stroke="#0f172a" stroke-width="12" stroke-linecap="round" opacity=".12"/>
<path d="M86 333 H196" stroke="#0f172a" stroke-width="10" stroke-linecap="round" opacity=".10"/>
</svg>