<?xml version="1.0" encoding="UTF-8"?>
<svg xmlns="http://www.w3.org/2000/svg" width="640" height="400" viewBox="0 0 640 400" role="img" aria-labelledby="title desc">
<title id="title">Apartamentos turisticos</title>
<desc id="desc">Ilustracion profesional para la tarjeta Apartamentos turisticos del portal Powerful Control System.</desc>

<defs>
  <linearGradient id="bg" x1="0" y1="0" x2="1" y2="1"><stop offset="0" stop-color="#0ea5e9"/><stop offset="1" stop-color="#14b8a6"/></linearGradient>
  <linearGradient id="panel" x1="0" y1="0" x2="0" y2="1"><stop offset="0" stop-color="#ffffff" stop-opacity=".95"/><stop offset="1" stop-color="#f8fafc" stop-opacity=".90"/></linearGradient>
  <filter id="shadow" x="-20%" y="-20%" width="140%" height="150%"><feDropShadow dx="0" dy="14" stdDeviation="16" flood-color="#020617" flood-opacity=".26"/></filter>
</defs>
<rect width="640" height="400" rx="34" fill="url(#bg)"/>
<circle cx="92" cy="70" r="120" fill="#fff" opacity=".12"/>
<circle cx="560" cy="335" r="150" fill="#020617" opacity=".14"/>
<path d="M44 315 C150 248 224 344 336 278 C432 222 516 256 606 196 L606 400 L44 400 Z" fill="#fff" opacity=".14"/>
<rect x="54" y="45" width="532" height="310" rx="28" fill="url(#panel)" filter="url(#shadow)"/>
<rect x="84" y="76" width="204" height="18" rx="9" fill="#0f172a" opacity=".12"/>
<rect x="84" y="107" width="138" height="12" rx="6" fill="#0f172a" opacity=".10"/>

<g transform="translate(96 155)"><rect width="126" height="96" rx="15" fill="#fff" stroke="#0f172a" stroke-width="7"/><path d="M0 30 H126" stroke="#0f172a" stroke-width="7"/><circle cx="38" cy="60" r="8" fill="#0ea5e9"/><circle cx="72" cy="60" r="8" fill="#0ea5e9"/><circle cx="106" cy="60" r="8" fill="#0ea5e9"/></g>
<g transform="translate(350 104)"><rect x="0" y="60" width="160" height="148" rx="12" fill="#e0f2fe" stroke="#0f172a" stroke-width="8"/><rect x="38" y="20" width="98" height="188" rx="12" fill="#fff" stroke="#0f172a" stroke-width="8"/><g fill="#0ea5e9"><rect x="56" y="48" width="18" height="18" rx="4"/><rect x="98" y="48" width="18" height="18" rx="4"/><rect x="56" y="88" width="18" height="18" rx="4"/><rect x="98" y="88" width="18" height="18" rx="4"/><rect x="56" y="128" width="18" height="18" rx="4"/><rect x="98" y="128" width="18" height="18" rx="4"/></g><rect x="76" y="164" width="38" height="44" rx="6" fill="#0f172a" opacity=".82"/></g>
<path d="M86 310 H250" stroke="#0f172a" stroke-width="12" stroke-linecap="round" opacity=".12"/>
<path d="M86 333 H196" stroke="#0f172a" stroke-width="10" stroke-linecap="round" opacity=".10"/>
</svg>