<?xml version="1.0" encoding="UTF-8"?>
<svg xmlns="http://www.w3.org/2000/svg" width="640" height="400" viewBox="0 0 640 400" role="img" aria-labelledby="title desc">
<title id="title">Cierre fiscal</title>
<desc id="desc">Ilustracion profesional para la tarjeta Cierre fiscal del portal Powerful Control System.</desc>

<defs>
  <linearGradient id="bg" x1="0" y1="0" x2="1" y2="1"><stop offset="0" stop-color="#7c2d12"/><stop offset="1" stop-color="#f97316"/></linearGradient>
  <linearGradient id="panel" x1="0" y1="0" x2="0" y2="1"><stop offset="0" stop-color="#ffffff" stop-opacity=".95"/><stop offset="1" stop-color="#f8fafc" stop-opacity=".90"/></linearGradient>
  <filter id="shadow" x="-20%" y="-20%" width="140%" height="150%"><feDropShadow dx="0" dy="14" stdDeviation="16" flood-color="#020617" flood-opacity=".26"/></filter>
</defs>
<rect width="640" height="400" rx="34" fill="url(#bg)"/>
<circle cx="92" cy="70" r="120" fill="#fff" opacity=".12"/>
<circle cx="560" cy="335" r="150" fill="#020617" opacity=".14"/>
<path d="M44 315 C150 248 224 344 336 278 C432 222 516 256 606 196 L606 400 L44 400 Z" fill="#fff" opacity=".14"/>
<rect x="54" y="45" width="532" height="310" rx="28" fill="url(#panel)" filter="url(#shadow)"/>
<rect x="84" y="76" width="204" height="18" rx="9" fill="#0f172a" opacity=".12"/>
<rect x="84" y="107" width="138" height="12" rx="6" fill="#0f172a" opacity=".10"/>

<g transform="translate(112 158)"><rect y="58" width="112" height="82" rx="16" fill="#fff" stroke="#0f172a" stroke-width="7"/><path d="M26 58 V36 C26 12 86 12 86 36 V58" stroke="#0f172a" stroke-width="10" stroke-linecap="round" stroke-linejoin="round" fill="none" opacity=".9"/><circle cx="56" cy="98" r="10" fill="#f97316"/></g>
<g transform="translate(338 96)"><rect x="28" y="32" width="172" height="216" rx="16" fill="#ffedd5" stroke="#0f172a" stroke-width="8"/><path d="M70 78 H158 M70 122 H150 M70 166 H126" stroke="#0f172a" stroke-width="11" stroke-linecap="round" opacity=".28"/><circle cx="182" cy="196" r="48" fill="#fb923c" stroke="#0f172a" stroke-width="8"/><path d="M162 216 L202 176 M166 180 H166.1 M198 212 H198.1" stroke="#0f172a" stroke-width="10" stroke-linecap="round"/></g>
<path d="M86 310 H250" stroke="#0f172a" stroke-width="12" stroke-linecap="round" opacity=".12"/>
<path d="M86 333 H196" stroke="#0f172a" stroke-width="10" stroke-linecap="round" opacity=".10"/>
</svg>