<?xml version="1.0" encoding="UTF-8"?>
<svg xmlns="http://www.w3.org/2000/svg" width="640" height="400" viewBox="0 0 640 400" role="img" aria-labelledby="title desc">
<title id="title">Clinica y consultorios</title>
<desc id="desc">Ilustracion profesional para la tarjeta Clinica y consultorios del portal Powerful Control System.</desc>
<defs><linearGradient id="bg" x1="0" y1="0" x2="1" y2="1"><stop offset="0" stop-color="#0ea5e9"/><stop offset="1" stop-color="#14b8a6"/></linearGradient><filter id="sh" x="-20%" y="-20%" width="140%" height="150%"><feDropShadow dx="0" dy="14" stdDeviation="16" flood-color="#020617" flood-opacity=".24"/></filter></defs><rect width="640" height="400" rx="34" fill="url(#bg)"/><circle cx="88" cy="78" r="118" fill="#fff" opacity=".12"/><circle cx="552" cy="320" r="142" fill="#020617" opacity=".14"/><rect x="54" y="45" width="532" height="310" rx="28" fill="#fff" opacity=".92" filter="url(#sh)"/><rect x="90" y="78" width="190" height="18" rx="9" fill="#0f172a" opacity=".12"/><rect x="90" y="108" width="132" height="12" rx="6" fill="#0f172a" opacity=".10"/><g transform="translate(338 104)"><rect x="24" y="50" width="196" height="172" rx="18" fill="#e0f2fe" stroke="#0f172a" stroke-width="8"/><path d="M122 82 V190 M68 136 H176" stroke="#0ea5e9" stroke-width="28" stroke-linecap="round"/><rect x="72" y="20" width="104" height="54" rx="14" fill="#fff" stroke="#0f172a" stroke-width="8"/></g><g transform="translate(100 170)"><circle cx="54" cy="34" r="28" fill="#99f6e4" stroke="#0f172a" stroke-width="7"/><path d="M10 114 C22 72 86 72 98 114" fill="#fff" stroke="#0f172a" stroke-width="7"/></g><path d="M90 310 H250" stroke="#0f172a" stroke-width="12" stroke-linecap="round" opacity=".12"/><path d="M90 334 H205" stroke="#0f172a" stroke-width="10" stroke-linecap="round" opacity=".10"/>
</svg>