<?xml version="1.0" encoding="UTF-8"?>
<svg xmlns="http://www.w3.org/2000/svg" width="640" height="400" viewBox="0 0 640 400" role="img" aria-labelledby="title desc">
<title id="title">Club deportivo</title>
<desc id="desc">Ilustracion profesional para la tarjeta Club deportivo del portal Powerful Control System.</desc>
<defs><linearGradient id="bg" x1="0" y1="0" x2="1" y2="1"><stop offset="0" stop-color="#16a34a"/><stop offset="1" stop-color="#7c3aed"/></linearGradient><filter id="sh" x="-20%" y="-20%" width="140%" height="150%"><feDropShadow dx="0" dy="14" stdDeviation="16" flood-color="#020617" flood-opacity=".24"/></filter></defs><rect width="640" height="400" rx="34" fill="url(#bg)"/><circle cx="88" cy="78" r="118" fill="#fff" opacity=".12"/><circle cx="552" cy="320" r="142" fill="#020617" opacity=".14"/><rect x="54" y="45" width="532" height="310" rx="28" fill="#fff" opacity=".92" filter="url(#sh)"/><rect x="90" y="78" width="190" height="18" rx="9" fill="#0f172a" opacity=".12"/><rect x="90" y="108" width="132" height="12" rx="6" fill="#0f172a" opacity=".10"/><g transform="translate(334 96)"><path d="M70 34 H172 V74 C172 124 142 158 122 164 C102 158 70 124 70 74 Z" fill="#dcfce7" stroke="#0f172a" stroke-width="8"/><path d="M70 54 H26 C24 104 46 126 76 126 M172 54 H216 C218 104 196 126 166 126" stroke="#0f172a" stroke-width="9" stroke-linecap="round" stroke-linejoin="round" fill="none"/><rect x="94" y="164" width="56" height="54" fill="#a78bfa" stroke="#0f172a" stroke-width="7"/></g><g transform="translate(102 170)"><circle cx="58" cy="58" r="48" fill="#fff" stroke="#0f172a" stroke-width="7"/><path d="M34 58 H82 M58 34 V82" stroke="#16a34a" stroke-width="12" stroke-linecap="round"/></g><path d="M90 310 H250" stroke="#0f172a" stroke-width="12" stroke-linecap="round" opacity=".12"/><path d="M90 334 H205" stroke="#0f172a" stroke-width="10" stroke-linecap="round" opacity=".10"/>
</svg>