<?xml version="1.0" encoding="UTF-8"?>
<svg xmlns="http://www.w3.org/2000/svg" width="640" height="400" viewBox="0 0 640 400" role="img" aria-labelledby="title desc">
<title id="title">Cobranza profesional</title>
<desc id="desc">Ilustracion profesional para la tarjeta Cobranza profesional del portal Powerful Control System.</desc>

<defs>
  <linearGradient id="bg" x1="0" y1="0" x2="1" y2="1"><stop offset="0" stop-color="#0f766e"/><stop offset="1" stop-color="#ef4444"/></linearGradient>
  <linearGradient id="panel" x1="0" y1="0" x2="0" y2="1"><stop offset="0" stop-color="#ffffff" stop-opacity=".95"/><stop offset="1" stop-color="#f8fafc" stop-opacity=".90"/></linearGradient>
  <filter id="shadow" x="-20%" y="-20%" width="140%" height="150%"><feDropShadow dx="0" dy="14" stdDeviation="16" flood-color="#020617" flood-opacity=".26"/></filter>
</defs>
<rect width="640" height="400" rx="34" fill="url(#bg)"/>
<circle cx="92" cy="70" r="120" fill="#fff" opacity=".12"/>
<circle cx="560" cy="335" r="150" fill="#020617" opacity=".14"/>
<path d="M44 315 C150 248 224 344 336 278 C432 222 516 256 606 196 L606 400 L44 400 Z" fill="#fff" opacity=".14"/>
<rect x="54" y="45" width="532" height="310" rx="28" fill="url(#panel)" filter="url(#shadow)"/>
<rect x="84" y="76" width="204" height="18" rx="9" fill="#0f172a" opacity=".12"/>
<rect x="84" y="107" width="138" height="12" rx="6" fill="#0f172a" opacity=".10"/>

<g transform="translate(116 150)"><rect width="94" height="142" rx="18" fill="#fff" stroke="#0f172a" stroke-width="7"/><path d="M28 32 H66 M28 64 H66 M28 96 H54" stroke="#0f766e" stroke-width="8" stroke-linecap="round"/></g>
<g transform="translate(340 94)"><rect x="30" y="44" width="172" height="214" rx="18" fill="#ecfdf5" stroke="#0f172a" stroke-width="8"/><path d="M78 106 C78 82 154 82 154 106 C154 132 80 120 80 148 C80 176 160 174 160 148" stroke="#0f172a" stroke-width="10" stroke-linecap="round" stroke-linejoin="round" fill="none" opacity=".9"/><path d="M118 70 V190" stroke="#0f172a" stroke-width="9"/><circle cx="196" cy="214" r="40" fill="#fecaca" stroke="#0f172a" stroke-width="7"/><path d="M178 214 H214" stroke="#ef4444" stroke-width="10" stroke-linecap="round"/></g>
<path d="M86 310 H250" stroke="#0f172a" stroke-width="12" stroke-linecap="round" opacity=".12"/>
<path d="M86 333 H196" stroke="#0f172a" stroke-width="10" stroke-linecap="round" opacity=".10"/>
</svg>