<?xml version="1.0" encoding="UTF-8"?>
<svg xmlns="http://www.w3.org/2000/svg" width="640" height="400" viewBox="0 0 640 400" role="img" aria-labelledby="title desc">
<title id="title">Compras con OCR e IA</title>
<desc id="desc">Ilustracion profesional para la tarjeta Compras con OCR e IA del portal Powerful Control System.</desc>

<defs>
  <linearGradient id="bg" x1="0" y1="0" x2="1" y2="1"><stop offset="0" stop-color="#8b5cf6"/><stop offset="1" stop-color="#06b6d4"/></linearGradient>
  <linearGradient id="panel" x1="0" y1="0" x2="0" y2="1"><stop offset="0" stop-color="#ffffff" stop-opacity=".95"/><stop offset="1" stop-color="#f8fafc" stop-opacity=".90"/></linearGradient>
  <filter id="shadow" x="-20%" y="-20%" width="140%" height="150%"><feDropShadow dx="0" dy="14" stdDeviation="16" flood-color="#020617" flood-opacity=".26"/></filter>
</defs>
<rect width="640" height="400" rx="34" fill="url(#bg)"/>
<circle cx="92" cy="70" r="120" fill="#fff" opacity=".12"/>
<circle cx="560" cy="335" r="150" fill="#020617" opacity=".14"/>
<path d="M44 315 C150 248 224 344 336 278 C432 222 516 256 606 196 L606 400 L44 400 Z" fill="#fff" opacity=".14"/>
<rect x="54" y="45" width="532" height="310" rx="28" fill="url(#panel)" filter="url(#shadow)"/>
<rect x="84" y="76" width="204" height="18" rx="9" fill="#0f172a" opacity=".12"/>
<rect x="84" y="107" width="138" height="12" rx="6" fill="#0f172a" opacity=".10"/>

<g transform="translate(100 142)"><rect width="120" height="144" rx="14" fill="#fff" stroke="#0f172a" stroke-width="7"/><path d="M28 40 H88 M28 72 H78 M28 104 H92" stroke="#8b5cf6" stroke-width="8" stroke-linecap="round"/></g>
<g transform="translate(338 95)"><rect x="22" y="36" width="188" height="222" rx="18" fill="#f5f3ff" stroke="#0f172a" stroke-width="8"/><rect x="54" y="74" width="124" height="16" rx="8" fill="#0f172a" opacity=".18"/><rect x="54" y="112" width="98" height="12" rx="6" fill="#0f172a" opacity=".14"/><rect x="54" y="146" width="128" height="12" rx="6" fill="#0f172a" opacity=".14"/><path d="M42 202 H190" stroke="#8b5cf6" stroke-width="12" stroke-linecap="round"/><path d="M196 38 L228 6 M210 78 L248 78 M196 118 L228 150" stroke="#06b6d4" stroke-width="9" stroke-linecap="round"/></g>
<path d="M86 310 H250" stroke="#0f172a" stroke-width="12" stroke-linecap="round" opacity=".12"/>
<path d="M86 333 H196" stroke="#0f172a" stroke-width="10" stroke-linecap="round" opacity=".10"/>
</svg>