<?xml version="1.0" encoding="UTF-8"?>
<svg xmlns="http://www.w3.org/2000/svg" width="640" height="400" viewBox="0 0 640 400" role="img" aria-labelledby="title desc">
<title id="title">Consultorios odontologicos</title>
<desc id="desc">Ilustracion profesional para la tarjeta Consultorios odontologicos del portal Powerful Control System.</desc>

<defs>
  <linearGradient id="bg" x1="0" y1="0" x2="1" y2="1"><stop offset="0" stop-color="#0f766e"/><stop offset="1" stop-color="#38bdf8"/></linearGradient>
  <linearGradient id="panel" x1="0" y1="0" x2="0" y2="1"><stop offset="0" stop-color="#ffffff" stop-opacity=".95"/><stop offset="1" stop-color="#f8fafc" stop-opacity=".90"/></linearGradient>
  <filter id="shadow" x="-20%" y="-20%" width="140%" height="150%"><feDropShadow dx="0" dy="14" stdDeviation="16" flood-color="#020617" flood-opacity=".26"/></filter>
</defs>
<rect width="640" height="400" rx="34" fill="url(#bg)"/>
<circle cx="92" cy="70" r="120" fill="#fff" opacity=".12"/>
<circle cx="560" cy="335" r="150" fill="#020617" opacity=".14"/>
<path d="M44 315 C150 248 224 344 336 278 C432 222 516 256 606 196 L606 400 L44 400 Z" fill="#fff" opacity=".14"/>
<rect x="54" y="45" width="532" height="310" rx="28" fill="url(#panel)" filter="url(#shadow)"/>
<rect x="84" y="76" width="204" height="18" rx="9" fill="#0f172a" opacity=".12"/>
<rect x="84" y="107" width="138" height="12" rx="6" fill="#0f172a" opacity=".10"/>

<g transform="translate(92 150)"><rect width="128" height="118" rx="18" fill="#fff" stroke="#0f172a" stroke-width="7"/><circle cx="46" cy="42" r="22" fill="#38bdf8"/><path d="M22 92 C32 68 60 68 72 92" fill="#0f172a" opacity=".75"/><path d="M88 34 H110 M88 62 H108 M88 90 H104" stroke="#0f172a" stroke-width="8" stroke-linecap="round" opacity=".22"/></g>
<g transform="translate(362 98)"><path d="M94 26 C52 10 22 44 34 92 C42 126 54 166 76 226 C84 248 104 246 110 222 L126 160 L142 222 C148 246 168 248 176 226 C198 166 210 126 218 92 C230 44 200 10 158 26 C140 34 112 34 94 26 Z" fill="#e0f2fe" stroke="#0f172a" stroke-width="9"/><path d="M82 78 C112 94 140 94 170 78" stroke="#0f172a" stroke-width="10" stroke-linecap="round" stroke-linejoin="round" fill="none" opacity=".9"/></g>
<path d="M86 310 H250" stroke="#0f172a" stroke-width="12" stroke-linecap="round" opacity=".12"/>
<path d="M86 333 H196" stroke="#0f172a" stroke-width="10" stroke-linecap="round" opacity=".10"/>
</svg>