<?xml version="1.0" encoding="UTF-8"?>
<svg xmlns="http://www.w3.org/2000/svg" width="640" height="400" viewBox="0 0 640 400" role="img" aria-labelledby="title desc">
<title id="title">Cooperativa</title>
<desc id="desc">Ilustracion profesional para la tarjeta Cooperativa del portal Powerful Control System.</desc>
<defs><linearGradient id="bg" x1="0" y1="0" x2="1" y2="1"><stop offset="0" stop-color="#059669"/><stop offset="1" stop-color="#facc15"/></linearGradient><filter id="sh" x="-20%" y="-20%" width="140%" height="150%"><feDropShadow dx="0" dy="14" stdDeviation="16" flood-color="#020617" flood-opacity=".24"/></filter></defs><rect width="640" height="400" rx="34" fill="url(#bg)"/><circle cx="88" cy="78" r="118" fill="#fff" opacity=".12"/><circle cx="552" cy="320" r="142" fill="#020617" opacity=".14"/><rect x="54" y="45" width="532" height="310" rx="28" fill="#fff" opacity=".92" filter="url(#sh)"/><rect x="90" y="78" width="190" height="18" rx="9" fill="#0f172a" opacity=".12"/><rect x="90" y="108" width="132" height="12" rx="6" fill="#0f172a" opacity=".10"/><g transform="translate(334 110)"><circle cx="86" cy="86" r="56" fill="#dcfce7" stroke="#0f172a" stroke-width="8"/><circle cx="158" cy="132" r="56" fill="#fef3c7" stroke="#0f172a" stroke-width="8"/><path d="M68 86 H104 M86 68 V104 M140 132 H176" stroke="#059669" stroke-width="12" stroke-linecap="round"/></g><g transform="translate(96 170)"><rect width="136" height="86" rx="18" fill="#fff" stroke="#0f172a" stroke-width="7"/><path d="M26 54 C48 24 70 84 94 44 C106 24 118 36 126 48" stroke="#facc15" stroke-width="10" fill="none" stroke-linecap="round"/></g><path d="M90 310 H250" stroke="#0f172a" stroke-width="12" stroke-linecap="round" opacity=".12"/><path d="M90 334 H205" stroke="#0f172a" stroke-width="10" stroke-linecap="round" opacity=".10"/>
</svg>