<?xml version="1.0" encoding="UTF-8"?>
<svg xmlns="http://www.w3.org/2000/svg" width="640" height="400" viewBox="0 0 640 400" role="img" aria-labelledby="title desc">
<title id="title">Domicilios y entregas</title>
<desc id="desc">Ilustracion profesional para la tarjeta Domicilios y entregas del portal Powerful Control System.</desc>

<defs>
  <linearGradient id="bg" x1="0" y1="0" x2="1" y2="1"><stop offset="0" stop-color="#ef4444"/><stop offset="1" stop-color="#f97316"/></linearGradient>
  <linearGradient id="panel" x1="0" y1="0" x2="0" y2="1"><stop offset="0" stop-color="#ffffff" stop-opacity=".95"/><stop offset="1" stop-color="#f8fafc" stop-opacity=".90"/></linearGradient>
  <filter id="shadow" x="-20%" y="-20%" width="140%" height="150%"><feDropShadow dx="0" dy="14" stdDeviation="16" flood-color="#020617" flood-opacity=".26"/></filter>
</defs>
<rect width="640" height="400" rx="34" fill="url(#bg)"/>
<circle cx="92" cy="70" r="120" fill="#fff" opacity=".12"/>
<circle cx="560" cy="335" r="150" fill="#020617" opacity=".14"/>
<path d="M44 315 C150 248 224 344 336 278 C432 222 516 256 606 196 L606 400 L44 400 Z" fill="#fff" opacity=".14"/>
<rect x="54" y="45" width="532" height="310" rx="28" fill="url(#panel)" filter="url(#shadow)"/>
<rect x="84" y="76" width="204" height="18" rx="9" fill="#0f172a" opacity=".12"/>
<rect x="84" y="107" width="138" height="12" rx="6" fill="#0f172a" opacity=".10"/>

<g transform="translate(88 160)"><path d="M26 96 C8 44 86 56 68 20 C54 -8 132 -4 116 42 C102 82 166 62 150 108" stroke="#fff" stroke-width="12" fill="none" stroke-linecap="round"/><circle cx="26" cy="96" r="14" fill="#0f172a"/><circle cx="150" cy="108" r="14" fill="#0f172a"/></g>
<g transform="translate(325 126)"><rect x="40" y="54" width="126" height="86" rx="16" fill="#fff7ed" stroke="#0f172a" stroke-width="8"/><path d="M166 84 H214 L238 116 V140 H166 Z" fill="#fed7aa" stroke="#0f172a" stroke-width="8"/><circle cx="78" cy="154" r="20" fill="#0f172a"/><circle cx="204" cy="154" r="20" fill="#0f172a"/><path d="M28 42 H122 M10 78 H88 M24 114 H74" stroke="#ef4444" stroke-width="10" stroke-linecap="round"/></g>
<path d="M86 310 H250" stroke="#0f172a" stroke-width="12" stroke-linecap="round" opacity=".12"/>
<path d="M86 333 H196" stroke="#0f172a" stroke-width="10" stroke-linecap="round" opacity=".10"/>
</svg>