<?xml version="1.0" encoding="UTF-8"?>
<svg xmlns="http://www.w3.org/2000/svg" width="640" height="400" viewBox="0 0 640 400" role="img" aria-labelledby="title desc">
<title id="title">Funeraria exequial</title>
<desc id="desc">Ilustracion profesional para la tarjeta Funeraria exequial del portal Powerful Control System.</desc>
<defs><linearGradient id="bg" x1="0" y1="0" x2="1" y2="1"><stop offset="0" stop-color="#334155"/><stop offset="1" stop-color="#94a3b8"/></linearGradient><filter id="sh" x="-20%" y="-20%" width="140%" height="150%"><feDropShadow dx="0" dy="14" stdDeviation="16" flood-color="#020617" flood-opacity=".24"/></filter></defs><rect width="640" height="400" rx="34" fill="url(#bg)"/><circle cx="88" cy="78" r="118" fill="#fff" opacity=".12"/><circle cx="552" cy="320" r="142" fill="#020617" opacity=".14"/><rect x="54" y="45" width="532" height="310" rx="28" fill="#fff" opacity=".92" filter="url(#sh)"/><rect x="90" y="78" width="190" height="18" rx="9" fill="#0f172a" opacity=".12"/><rect x="90" y="108" width="132" height="12" rx="6" fill="#0f172a" opacity=".10"/><g transform="translate(346 98)"><rect x="32" y="58" width="164" height="172" rx="18" fill="#f1f5f9" stroke="#0f172a" stroke-width="8"/><path d="M114 90 V178 M78 126 H150" stroke="#64748b" stroke-width="14" stroke-linecap="round"/><circle cx="192" cy="52" r="36" fill="#cbd5e1" stroke="#0f172a" stroke-width="7"/></g><g transform="translate(96 170)"><path d="M20 86 C52 18 92 18 124 86" fill="#fff" stroke="#0f172a" stroke-width="7"/><path d="M44 58 H100" stroke="#64748b" stroke-width="9" stroke-linecap="round"/></g><path d="M90 310 H250" stroke="#0f172a" stroke-width="12" stroke-linecap="round" opacity=".12"/><path d="M90 334 H205" stroke="#0f172a" stroke-width="10" stroke-linecap="round" opacity=".10"/>
</svg>