<?xml version="1.0" encoding="UTF-8"?>
<svg xmlns="http://www.w3.org/2000/svg" width="640" height="400" viewBox="0 0 640 400" role="img" aria-labelledby="title desc">
<title id="title">Gestion documental y contratos</title>
<desc id="desc">Ilustracion profesional para la tarjeta Gestion documental y contratos del portal Powerful Control System.</desc>

<defs>
  <linearGradient id="bg" x1="0" y1="0" x2="1" y2="1"><stop offset="0" stop-color="#334155"/><stop offset="1" stop-color="#0ea5e9"/></linearGradient>
  <linearGradient id="panel" x1="0" y1="0" x2="0" y2="1"><stop offset="0" stop-color="#ffffff" stop-opacity=".95"/><stop offset="1" stop-color="#f8fafc" stop-opacity=".90"/></linearGradient>
  <filter id="shadow" x="-20%" y="-20%" width="140%" height="150%"><feDropShadow dx="0" dy="14" stdDeviation="16" flood-color="#020617" flood-opacity=".26"/></filter>
</defs>
<rect width="640" height="400" rx="34" fill="url(#bg)"/>
<circle cx="92" cy="70" r="120" fill="#fff" opacity=".12"/>
<circle cx="560" cy="335" r="150" fill="#020617" opacity=".14"/>
<path d="M44 315 C150 248 224 344 336 278 C432 222 516 256 606 196 L606 400 L44 400 Z" fill="#fff" opacity=".14"/>
<rect x="54" y="45" width="532" height="310" rx="28" fill="url(#panel)" filter="url(#shadow)"/>
<rect x="84" y="76" width="204" height="18" rx="9" fill="#0f172a" opacity=".12"/>
<rect x="84" y="107" width="138" height="12" rx="6" fill="#0f172a" opacity=".10"/>

<g transform="translate(90 178)"><rect width="150" height="78" rx="14" fill="#fff" stroke="#0f172a" stroke-width="7"/><path d="M26 48 C44 22 54 72 72 46 C90 20 98 66 126 36" stroke="#0ea5e9" stroke-width="8" fill="none" stroke-linecap="round"/></g>
<g transform="translate(336 86)"><rect x="44" y="40" width="144" height="204" rx="14" fill="#e0f2fe" stroke="#0f172a" stroke-width="8"/><path d="M146 40 V88 H188" fill="none" stroke="#0f172a" stroke-width="8"/><rect x="72" y="112" width="82" height="12" rx="6" fill="#0f172a" opacity=".22"/><rect x="72" y="148" width="96" height="12" rx="6" fill="#0f172a" opacity=".18"/><path d="M78 202 C108 184 120 228 160 198" stroke="#0ea5e9" stroke-width="10" stroke-linecap="round"/></g>
<path d="M86 310 H250" stroke="#0f172a" stroke-width="12" stroke-linecap="round" opacity=".12"/>
<path d="M86 333 H196" stroke="#0f172a" stroke-width="10" stroke-linecap="round" opacity=".10"/>
</svg>