<?xml version="1.0" encoding="UTF-8"?>
<svg xmlns="http://www.w3.org/2000/svg" width="640" height="400" viewBox="0 0 640 400" role="img" aria-labelledby="title desc">
<title id="title">Guarderia infantil</title>
<desc id="desc">Ilustracion profesional para la tarjeta Guarderia infantil del portal Powerful Control System.</desc>
<defs><linearGradient id="bg" x1="0" y1="0" x2="1" y2="1"><stop offset="0" stop-color="#f97316"/><stop offset="1" stop-color="#22c55e"/></linearGradient><filter id="sh" x="-20%" y="-20%" width="140%" height="150%"><feDropShadow dx="0" dy="14" stdDeviation="16" flood-color="#020617" flood-opacity=".24"/></filter></defs><rect width="640" height="400" rx="34" fill="url(#bg)"/><circle cx="88" cy="78" r="118" fill="#fff" opacity=".12"/><circle cx="552" cy="320" r="142" fill="#020617" opacity=".14"/><rect x="54" y="45" width="532" height="310" rx="28" fill="#fff" opacity=".92" filter="url(#sh)"/><rect x="90" y="78" width="190" height="18" rx="9" fill="#0f172a" opacity=".12"/><rect x="90" y="108" width="132" height="12" rx="6" fill="#0f172a" opacity=".10"/><g transform="translate(328 116)"><rect x="30" y="88" width="72" height="72" rx="14" fill="#fed7aa" stroke="#0f172a" stroke-width="8"/><rect x="112" y="40" width="72" height="120" rx="14" fill="#bbf7d0" stroke="#0f172a" stroke-width="8"/><rect x="194" y="104" width="52" height="56" rx="14" fill="#bfdbfe" stroke="#0f172a" stroke-width="8"/><circle cx="66" cy="54" r="28" fill="#fdba74" stroke="#0f172a" stroke-width="7"/></g><g transform="translate(100 166)"><path d="M22 96 C28 38 100 38 108 96" fill="#fff" stroke="#0f172a" stroke-width="7"/><circle cx="64" cy="36" r="28" fill="#22c55e"/></g><path d="M90 310 H250" stroke="#0f172a" stroke-width="12" stroke-linecap="round" opacity=".12"/><path d="M90 334 H205" stroke="#0f172a" stroke-width="10" stroke-linecap="round" opacity=".10"/>
</svg>