<?xml version="1.0" encoding="UTF-8"?>
<svg xmlns="http://www.w3.org/2000/svg" width="640" height="400" viewBox="0 0 640 400" role="img" aria-labelledby="title desc">
<title id="title">Inmobiliaria</title>
<desc id="desc">Ilustracion profesional para la tarjeta Inmobiliaria del portal Powerful Control System.</desc>
<defs><linearGradient id="bg" x1="0" y1="0" x2="1" y2="1"><stop offset="0" stop-color="#0f766e"/><stop offset="1" stop-color="#f59e0b"/></linearGradient><filter id="sh" x="-20%" y="-20%" width="140%" height="150%"><feDropShadow dx="0" dy="14" stdDeviation="16" flood-color="#020617" flood-opacity=".24"/></filter></defs><rect width="640" height="400" rx="34" fill="url(#bg)"/><circle cx="88" cy="78" r="118" fill="#fff" opacity=".12"/><circle cx="552" cy="320" r="142" fill="#020617" opacity=".14"/><rect x="54" y="45" width="532" height="310" rx="28" fill="#fff" opacity=".92" filter="url(#sh)"/><rect x="90" y="78" width="190" height="18" rx="9" fill="#0f172a" opacity=".12"/><rect x="90" y="108" width="132" height="12" rx="6" fill="#0f172a" opacity=".10"/><g transform="translate(326 108)"><path d="M26 116 L126 32 L228 116 V226 H26 Z" fill="#fef3c7" stroke="#0f172a" stroke-width="8"/><rect x="88" y="154" width="70" height="72" rx="10" fill="#0f172a" opacity=".85"/><rect x="50" y="124" width="44" height="36" rx="8" fill="#fff"/><rect x="160" y="124" width="44" height="36" rx="8" fill="#fff"/></g><g transform="translate(100 170)"><rect width="126" height="86" rx="14" fill="#fff" stroke="#0f172a" stroke-width="7"/><path d="M28 58 C48 26 78 82 100 40" stroke="#0f766e" stroke-width="9" fill="none" stroke-linecap="round"/></g><path d="M90 310 H250" stroke="#0f172a" stroke-width="12" stroke-linecap="round" opacity=".12"/><path d="M90 334 H205" stroke="#0f172a" stroke-width="10" stroke-linecap="round" opacity=".10"/>
</svg>