<?xml version="1.0" encoding="UTF-8"?>
<svg xmlns="http://www.w3.org/2000/svg" width="640" height="400" viewBox="0 0 640 400" role="img" aria-labelledby="title desc">
<title id="title">Laboratorio clinico</title>
<desc id="desc">Ilustracion profesional para la tarjeta Laboratorio clinico del portal Powerful Control System.</desc>
<defs><linearGradient id="bg" x1="0" y1="0" x2="1" y2="1"><stop offset="0" stop-color="#2563eb"/><stop offset="1" stop-color="#9333ea"/></linearGradient><filter id="sh" x="-20%" y="-20%" width="140%" height="150%"><feDropShadow dx="0" dy="14" stdDeviation="16" flood-color="#020617" flood-opacity=".24"/></filter></defs><rect width="640" height="400" rx="34" fill="url(#bg)"/><circle cx="88" cy="78" r="118" fill="#fff" opacity=".12"/><circle cx="552" cy="320" r="142" fill="#020617" opacity=".14"/><rect x="54" y="45" width="532" height="310" rx="28" fill="#fff" opacity=".92" filter="url(#sh)"/><rect x="90" y="78" width="190" height="18" rx="9" fill="#0f172a" opacity=".12"/><rect x="90" y="108" width="132" height="12" rx="6" fill="#0f172a" opacity=".10"/><g transform="translate(334 88)"><path d="M76 28 V116 L34 220 H198 L156 116 V28" fill="#e0e7ff" stroke="#0f172a" stroke-width="8"/><path d="M58 166 H174" stroke="#9333ea" stroke-width="18"/><path d="M56 28 H176" stroke="#0f172a" stroke-width="9" stroke-linecap="round" stroke-linejoin="round" fill="none"/></g><g transform="translate(102 154)"><rect width="112" height="122" rx="18" fill="#fff" stroke="#0f172a" stroke-width="7"/><path d="M34 28 V86 M78 28 V86" stroke="#2563eb" stroke-width="12" stroke-linecap="round"/><circle cx="34" cy="100" r="12" fill="#9333ea"/><circle cx="78" cy="100" r="12" fill="#9333ea"/></g><path d="M90 310 H250" stroke="#0f172a" stroke-width="12" stroke-linecap="round" opacity=".12"/><path d="M90 334 H205" stroke="#0f172a" stroke-width="10" stroke-linecap="round" opacity=".10"/>
</svg>