<?xml version="1.0" encoding="UTF-8"?>
<svg xmlns="http://www.w3.org/2000/svg" width="640" height="400" viewBox="0 0 640 400" role="img" aria-labelledby="title desc">
<title id="title">Lavanderia</title>
<desc id="desc">Ilustracion profesional para la tarjeta Lavanderia del portal Powerful Control System.</desc>
<defs><linearGradient id="bg" x1="0" y1="0" x2="1" y2="1"><stop offset="0" stop-color="#06b6d4"/><stop offset="1" stop-color="#6366f1"/></linearGradient><filter id="sh" x="-20%" y="-20%" width="140%" height="150%"><feDropShadow dx="0" dy="14" stdDeviation="16" flood-color="#020617" flood-opacity=".24"/></filter></defs><rect width="640" height="400" rx="34" fill="url(#bg)"/><circle cx="88" cy="78" r="118" fill="#fff" opacity=".12"/><circle cx="552" cy="320" r="142" fill="#020617" opacity=".14"/><rect x="54" y="45" width="532" height="310" rx="28" fill="#fff" opacity=".92" filter="url(#sh)"/><rect x="90" y="78" width="190" height="18" rx="9" fill="#0f172a" opacity=".12"/><rect x="90" y="108" width="132" height="12" rx="6" fill="#0f172a" opacity=".10"/><g transform="translate(346 96)"><rect x="28" y="20" width="172" height="232" rx="20" fill="#e0f2fe" stroke="#0f172a" stroke-width="8"/><circle cx="114" cy="142" r="62" fill="#fff" stroke="#0f172a" stroke-width="8"/><path d="M76 142 C98 116 128 170 154 142" stroke="#06b6d4" stroke-width="10" fill="none"/><rect x="60" y="54" width="42" height="14" rx="7" fill="#0f172a" opacity=".22"/></g><g transform="translate(98 168)"><path d="M16 32 H132 L110 112 H38 Z" fill="#fff" stroke="#0f172a" stroke-width="7"/><path d="M46 64 H102" stroke="#6366f1" stroke-width="10" stroke-linecap="round"/></g><path d="M90 310 H250" stroke="#0f172a" stroke-width="12" stroke-linecap="round" opacity=".12"/><path d="M90 334 H205" stroke="#0f172a" stroke-width="10" stroke-linecap="round" opacity=".10"/>
</svg>