<?xml version="1.0" encoding="UTF-8"?>
<svg xmlns="http://www.w3.org/2000/svg" width="640" height="400" viewBox="0 0 640 400" role="img" aria-labelledby="title desc">
<title id="title">Operador turistico</title>
<desc id="desc">Ilustracion profesional para la tarjeta Operador turistico del portal Powerful Control System.</desc>
<defs><linearGradient id="bg" x1="0" y1="0" x2="1" y2="1"><stop offset="0" stop-color="#0f766e"/><stop offset="1" stop-color="#38bdf8"/></linearGradient><filter id="sh" x="-20%" y="-20%" width="140%" height="150%"><feDropShadow dx="0" dy="14" stdDeviation="16" flood-color="#020617" flood-opacity=".24"/></filter></defs><rect width="640" height="400" rx="34" fill="url(#bg)"/><circle cx="88" cy="78" r="118" fill="#fff" opacity=".12"/><circle cx="552" cy="320" r="142" fill="#020617" opacity=".14"/><rect x="54" y="45" width="532" height="310" rx="28" fill="#fff" opacity=".92" filter="url(#sh)"/><rect x="90" y="78" width="190" height="18" rx="9" fill="#0f172a" opacity=".12"/><rect x="90" y="108" width="132" height="12" rx="6" fill="#0f172a" opacity=".10"/><g transform="translate(322 112)"><path d="M28 44 L102 18 L174 48 L226 28 V206 L174 226 L102 196 L28 222 Z" fill="#ccfbf1" stroke="#0f172a" stroke-width="8"/><path d="M102 18 V196 M174 48 V226" stroke="#0f766e" stroke-width="8"/><circle cx="150" cy="112" r="28" fill="#38bdf8" stroke="#0f172a" stroke-width="7"/></g><g transform="translate(100 160)"><path d="M58 0 C22 44 20 78 58 126 C96 78 94 44 58 0 Z" fill="#fff" stroke="#0f172a" stroke-width="7"/><circle cx="58" cy="46" r="18" fill="#0f766e"/></g><path d="M90 310 H250" stroke="#0f172a" stroke-width="12" stroke-linecap="round" opacity=".12"/><path d="M90 334 H205" stroke="#0f172a" stroke-width="10" stroke-linecap="round" opacity=".10"/>
</svg>