<?xml version="1.0" encoding="UTF-8"?>
<svg xmlns="http://www.w3.org/2000/svg" width="640" height="400" viewBox="0 0 640 400" role="img" aria-labelledby="title desc">
<title id="title">Parqueaderos con ticket QR</title>
<desc id="desc">Ilustracion profesional para la tarjeta Parqueaderos con ticket QR del portal Powerful Control System.</desc>

<defs>
  <linearGradient id="bg" x1="0" y1="0" x2="1" y2="1"><stop offset="0" stop-color="#2563eb"/><stop offset="1" stop-color="#f59e0b"/></linearGradient>
  <linearGradient id="panel" x1="0" y1="0" x2="0" y2="1"><stop offset="0" stop-color="#ffffff" stop-opacity=".95"/><stop offset="1" stop-color="#f8fafc" stop-opacity=".90"/></linearGradient>
  <filter id="shadow" x="-20%" y="-20%" width="140%" height="150%"><feDropShadow dx="0" dy="14" stdDeviation="16" flood-color="#020617" flood-opacity=".26"/></filter>
</defs>
<rect width="640" height="400" rx="34" fill="url(#bg)"/>
<circle cx="92" cy="70" r="120" fill="#fff" opacity=".12"/>
<circle cx="560" cy="335" r="150" fill="#020617" opacity=".14"/>
<path d="M44 315 C150 248 224 344 336 278 C432 222 516 256 606 196 L606 400 L44 400 Z" fill="#fff" opacity=".14"/>
<rect x="54" y="45" width="532" height="310" rx="28" fill="url(#panel)" filter="url(#shadow)"/>
<rect x="84" y="76" width="204" height="18" rx="9" fill="#0f172a" opacity=".12"/>
<rect x="84" y="107" width="138" height="12" rx="6" fill="#0f172a" opacity=".10"/>

<g transform="translate(94 150)"><rect width="112" height="112" rx="12" fill="#fff" stroke="#0f172a" stroke-width="7"/><path d="M22 22 H44 V44 H22 Z M68 22 H90 V44 H68 Z M22 68 H44 V90 H22 Z M66 66 H78 V78 H66 Z M82 82 H94 V94 H82 Z" fill="#0f172a"/></g>
<g transform="translate(330 155)"><path d="M35 88 L62 28 H180 L212 88 Z" fill="#fff" stroke="#0f172a" stroke-width="9"/><rect x="18" y="82" width="214" height="76" rx="24" fill="#dbeafe" stroke="#0f172a" stroke-width="9"/><circle cx="62" cy="162" r="22" fill="#0f172a"/><circle cx="188" cy="162" r="22" fill="#0f172a"/><path d="M78 36 L65 74 H124 V36 Z M134 36 V74 H190 L170 36 Z" fill="#38bdf8" opacity=".75"/></g>
<path d="M86 310 H250" stroke="#0f172a" stroke-width="12" stroke-linecap="round" opacity=".12"/>
<path d="M86 333 H196" stroke="#0f172a" stroke-width="10" stroke-linecap="round" opacity=".10"/>
</svg>