<?xml version="1.0" encoding="UTF-8"?>
<svg xmlns="http://www.w3.org/2000/svg" width="640" height="400" viewBox="0 0 640 400" role="img" aria-labelledby="title desc">
<title id="title">Produccion / MRP</title>
<desc id="desc">Ilustracion profesional para la tarjeta Produccion / MRP del portal Powerful Control System.</desc>

<defs>
  <linearGradient id="bg" x1="0" y1="0" x2="1" y2="1"><stop offset="0" stop-color="#ea580c"/><stop offset="1" stop-color="#64748b"/></linearGradient>
  <linearGradient id="panel" x1="0" y1="0" x2="0" y2="1"><stop offset="0" stop-color="#ffffff" stop-opacity=".95"/><stop offset="1" stop-color="#f8fafc" stop-opacity=".90"/></linearGradient>
  <filter id="shadow" x="-20%" y="-20%" width="140%" height="150%"><feDropShadow dx="0" dy="14" stdDeviation="16" flood-color="#020617" flood-opacity=".26"/></filter>
</defs>
<rect width="640" height="400" rx="34" fill="url(#bg)"/>
<circle cx="92" cy="70" r="120" fill="#fff" opacity=".12"/>
<circle cx="560" cy="335" r="150" fill="#020617" opacity=".14"/>
<path d="M44 315 C150 248 224 344 336 278 C432 222 516 256 606 196 L606 400 L44 400 Z" fill="#fff" opacity=".14"/>
<rect x="54" y="45" width="532" height="310" rx="28" fill="url(#panel)" filter="url(#shadow)"/>
<rect x="84" y="76" width="204" height="18" rx="9" fill="#0f172a" opacity=".12"/>
<rect x="84" y="107" width="138" height="12" rx="6" fill="#0f172a" opacity=".10"/>

<g transform="translate(112 154)"><circle cx="60" cy="60" r="46" fill="#fff" stroke="#0f172a" stroke-width="7"/><circle cx="60" cy="60" r="18" fill="#ea580c"/><path d="M60 0 V22 M60 98 V120 M0 60 H22 M98 60 H120 M18 18 L34 34 M86 86 L102 102 M102 18 L86 34 M34 86 L18 102" stroke="#0f172a" stroke-width="8" stroke-linecap="round"/></g>
<g transform="translate(326 110)"><path d="M18 214 V112 L76 148 V112 L138 150 V80 H214 V214 Z" fill="#fed7aa" stroke="#0f172a" stroke-width="8"/><rect x="54" y="166" width="34" height="48" fill="#fff"/><rect x="112" y="166" width="34" height="48" fill="#fff"/><rect x="170" y="132" width="34" height="82" fill="#fff"/><circle cx="224" cy="52" r="26" fill="#fb923c" opacity=".7"/></g>
<path d="M86 310 H250" stroke="#0f172a" stroke-width="12" stroke-linecap="round" opacity=".12"/>
<path d="M86 333 H196" stroke="#0f172a" stroke-width="10" stroke-linecap="round" opacity=".10"/>
</svg>