<?xml version="1.0" encoding="UTF-8"?>
<svg xmlns="http://www.w3.org/2000/svg" width="640" height="400" viewBox="0 0 640 400" role="img" aria-labelledby="title desc">
<title id="title">Propiedad horizontal</title>
<desc id="desc">Ilustracion profesional para la tarjeta Propiedad horizontal del portal Powerful Control System.</desc>

<defs>
  <linearGradient id="bg" x1="0" y1="0" x2="1" y2="1"><stop offset="0" stop-color="#475569"/><stop offset="1" stop-color="#22c55e"/></linearGradient>
  <linearGradient id="panel" x1="0" y1="0" x2="0" y2="1"><stop offset="0" stop-color="#ffffff" stop-opacity=".95"/><stop offset="1" stop-color="#f8fafc" stop-opacity=".90"/></linearGradient>
  <filter id="shadow" x="-20%" y="-20%" width="140%" height="150%"><feDropShadow dx="0" dy="14" stdDeviation="16" flood-color="#020617" flood-opacity=".26"/></filter>
</defs>
<rect width="640" height="400" rx="34" fill="url(#bg)"/>
<circle cx="92" cy="70" r="120" fill="#fff" opacity=".12"/>
<circle cx="560" cy="335" r="150" fill="#020617" opacity=".14"/>
<path d="M44 315 C150 248 224 344 336 278 C432 222 516 256 606 196 L606 400 L44 400 Z" fill="#fff" opacity=".14"/>
<rect x="54" y="45" width="532" height="310" rx="28" fill="url(#panel)" filter="url(#shadow)"/>
<rect x="84" y="76" width="204" height="18" rx="9" fill="#0f172a" opacity=".12"/>
<rect x="84" y="107" width="138" height="12" rx="6" fill="#0f172a" opacity=".10"/>

<g transform="translate(92 160)"><circle cx="34" cy="28" r="22" fill="#22c55e" stroke="#0f172a" stroke-width="6"/><circle cx="88" cy="28" r="22" fill="#94a3b8" stroke="#0f172a" stroke-width="6"/><path d="M4 94 C12 58 56 58 66 94 M58 94 C68 58 112 58 122 94" stroke="#0f172a" stroke-width="8" fill="none"/></g>
<g transform="translate(342 88)"><rect x="18" y="92" width="170" height="156" rx="14" fill="#dcfce7" stroke="#0f172a" stroke-width="8"/><rect x="58" y="36" width="106" height="212" rx="14" fill="#fff" stroke="#0f172a" stroke-width="8"/><path d="M74 248 V208 H148 V248" fill="#0f172a" opacity=".86"/><g fill="#22c55e"><rect x="80" y="68" width="18" height="18" rx="4"/><rect x="124" y="68" width="18" height="18" rx="4"/><rect x="80" y="110" width="18" height="18" rx="4"/><rect x="124" y="110" width="18" height="18" rx="4"/><rect x="80" y="152" width="18" height="18" rx="4"/><rect x="124" y="152" width="18" height="18" rx="4"/></g></g>
<path d="M86 310 H250" stroke="#0f172a" stroke-width="12" stroke-linecap="round" opacity=".12"/>
<path d="M86 333 H196" stroke="#0f172a" stroke-width="10" stroke-linecap="round" opacity=".10"/>
</svg>