<?xml version="1.0" encoding="UTF-8"?>
<svg xmlns="http://www.w3.org/2000/svg" width="640" height="400" viewBox="0 0 640 400" role="img" aria-labelledby="title desc">
<title id="title">Seguridad privada</title>
<desc id="desc">Ilustracion profesional para la tarjeta Seguridad privada del portal Powerful Control System.</desc>
<defs><linearGradient id="bg" x1="0" y1="0" x2="1" y2="1"><stop offset="0" stop-color="#111827"/><stop offset="1" stop-color="#2563eb"/></linearGradient><filter id="sh" x="-20%" y="-20%" width="140%" height="150%"><feDropShadow dx="0" dy="14" stdDeviation="16" flood-color="#020617" flood-opacity=".24"/></filter></defs><rect width="640" height="400" rx="34" fill="url(#bg)"/><circle cx="88" cy="78" r="118" fill="#fff" opacity=".12"/><circle cx="552" cy="320" r="142" fill="#020617" opacity=".14"/><rect x="54" y="45" width="532" height="310" rx="28" fill="#fff" opacity=".92" filter="url(#sh)"/><rect x="90" y="78" width="190" height="18" rx="9" fill="#0f172a" opacity=".12"/><rect x="90" y="108" width="132" height="12" rx="6" fill="#0f172a" opacity=".10"/><g transform="translate(348 90)"><path d="M104 16 L196 52 V122 C196 182 154 222 104 250 C54 222 12 182 12 122 V52 Z" fill="#dbeafe" stroke="#0f172a" stroke-width="8"/><path d="M70 132 L96 158 L146 96" stroke="#2563eb" stroke-width="14" fill="none" stroke-linecap="round"/></g><g transform="translate(96 170)"><rect width="138" height="86" rx="16" fill="#fff" stroke="#0f172a" stroke-width="7"/><circle cx="70" cy="43" r="24" fill="#2563eb"/><path d="M14 16 H44 M96 16 H124" stroke="#111827" stroke-width="8" stroke-linecap="round"/></g><path d="M90 310 H250" stroke="#0f172a" stroke-width="12" stroke-linecap="round" opacity=".12"/><path d="M90 334 H205" stroke="#0f172a" stroke-width="10" stroke-linecap="round" opacity=".10"/>
</svg>