<?xml version="1.0" encoding="UTF-8"?>
<svg xmlns="http://www.w3.org/2000/svg" width="640" height="400" viewBox="0 0 640 400" role="img" aria-labelledby="title desc">
<title id="title">Servicios tecnicos</title>
<desc id="desc">Ilustracion profesional para la tarjeta Servicios tecnicos del portal Powerful Control System.</desc>
<defs><linearGradient id="bg" x1="0" y1="0" x2="1" y2="1"><stop offset="0" stop-color="#334155"/><stop offset="1" stop-color="#22c55e"/></linearGradient><filter id="sh" x="-20%" y="-20%" width="140%" height="150%"><feDropShadow dx="0" dy="14" stdDeviation="16" flood-color="#020617" flood-opacity=".24"/></filter></defs><rect width="640" height="400" rx="34" fill="url(#bg)"/><circle cx="88" cy="78" r="118" fill="#fff" opacity=".12"/><circle cx="552" cy="320" r="142" fill="#020617" opacity=".14"/><rect x="54" y="45" width="532" height="310" rx="28" fill="#fff" opacity=".92" filter="url(#sh)"/><rect x="90" y="78" width="190" height="18" rx="9" fill="#0f172a" opacity=".12"/><rect x="90" y="108" width="132" height="12" rx="6" fill="#0f172a" opacity=".10"/><g transform="translate(334 112)"><circle cx="114" cy="104" r="72" fill="#dcfce7" stroke="#0f172a" stroke-width="8"/><path d="M66 104 H162 M114 56 V152" stroke="#22c55e" stroke-width="14" stroke-linecap="round"/><path d="M36 32 L70 66 M192 32 L158 66 M36 176 L70 142 M192 176 L158 142" stroke="#0f172a" stroke-width="9" stroke-linecap="round" stroke-linejoin="round" fill="none"/></g><g transform="translate(98 166)"><rect width="132" height="92" rx="16" fill="#fff" stroke="#0f172a" stroke-width="7"/><path d="M32 46 H100 M66 20 V72" stroke="#334155" stroke-width="10" stroke-linecap="round"/></g><path d="M90 310 H250" stroke="#0f172a" stroke-width="12" stroke-linecap="round" opacity=".12"/><path d="M90 334 H205" stroke="#0f172a" stroke-width="10" stroke-linecap="round" opacity=".10"/>
</svg>