<?xml version="1.0" encoding="UTF-8"?>
<svg xmlns="http://www.w3.org/2000/svg" width="640" height="400" viewBox="0 0 640 400" role="img" aria-labelledby="title desc">
<title id="title">Taxi system</title>
<desc id="desc">Ilustracion profesional para la tarjeta Taxi system del portal Powerful Control System.</desc>

<defs>
  <linearGradient id="bg" x1="0" y1="0" x2="1" y2="1"><stop offset="0" stop-color="#f59e0b"/><stop offset="1" stop-color="#111827"/></linearGradient>
  <linearGradient id="panel" x1="0" y1="0" x2="0" y2="1"><stop offset="0" stop-color="#ffffff" stop-opacity=".95"/><stop offset="1" stop-color="#f8fafc" stop-opacity=".90"/></linearGradient>
  <filter id="shadow" x="-20%" y="-20%" width="140%" height="150%"><feDropShadow dx="0" dy="14" stdDeviation="16" flood-color="#020617" flood-opacity=".26"/></filter>
</defs>
<rect width="640" height="400" rx="34" fill="url(#bg)"/>
<circle cx="92" cy="70" r="120" fill="#fff" opacity=".12"/>
<circle cx="560" cy="335" r="150" fill="#020617" opacity=".14"/>
<path d="M44 315 C150 248 224 344 336 278 C432 222 516 256 606 196 L606 400 L44 400 Z" fill="#fff" opacity=".14"/>
<rect x="54" y="45" width="532" height="310" rx="28" fill="url(#panel)" filter="url(#shadow)"/>
<rect x="84" y="76" width="204" height="18" rx="9" fill="#0f172a" opacity=".12"/>
<rect x="84" y="107" width="138" height="12" rx="6" fill="#0f172a" opacity=".10"/>

<g transform="translate(88 150)"><path d="M10 26 L62 6 L118 28 L166 8 V122 L118 142 L62 120 L10 140 Z" fill="#fff" stroke="#0f172a" stroke-width="7"/><path d="M62 6 V120 M118 28 V142" stroke="#f59e0b" stroke-width="7"/></g>
<g transform="translate(316 135)"><rect x="60" y="20" width="96" height="36" rx="8" fill="#facc15" stroke="#0f172a" stroke-width="7"/><path d="M32 114 L58 54 H178 L210 114 Z" fill="#fef08a" stroke="#0f172a" stroke-width="9"/><rect x="14" y="108" width="218" height="74" rx="25" fill="#facc15" stroke="#0f172a" stroke-width="9"/><circle cx="60" cy="188" r="22" fill="#0f172a"/><circle cx="188" cy="188" r="22" fill="#0f172a"/><path d="M92 84 H150" stroke="#0f172a" stroke-width="10"/></g>
<path d="M86 310 H250" stroke="#0f172a" stroke-width="12" stroke-linecap="round" opacity=".12"/>
<path d="M86 333 H196" stroke="#0f172a" stroke-width="10" stroke-linecap="round" opacity=".10"/>
</svg>