<?xml version="1.0" encoding="UTF-8"?>
<svg xmlns="http://www.w3.org/2000/svg" width="640" height="400" viewBox="0 0 640 400" role="img" aria-labelledby="title desc">
<title id="title">Tickets de ayuda y calidad</title>
<desc id="desc">Ilustracion profesional para la tarjeta Tickets de ayuda y calidad del portal Powerful Control System.</desc>

<defs>
  <linearGradient id="bg" x1="0" y1="0" x2="1" y2="1"><stop offset="0" stop-color="#db2777"/><stop offset="1" stop-color="#6366f1"/></linearGradient>
  <linearGradient id="panel" x1="0" y1="0" x2="0" y2="1"><stop offset="0" stop-color="#ffffff" stop-opacity=".95"/><stop offset="1" stop-color="#f8fafc" stop-opacity=".90"/></linearGradient>
  <filter id="shadow" x="-20%" y="-20%" width="140%" height="150%"><feDropShadow dx="0" dy="14" stdDeviation="16" flood-color="#020617" flood-opacity=".26"/></filter>
</defs>
<rect width="640" height="400" rx="34" fill="url(#bg)"/>
<circle cx="92" cy="70" r="120" fill="#fff" opacity=".12"/>
<circle cx="560" cy="335" r="150" fill="#020617" opacity=".14"/>
<path d="M44 315 C150 248 224 344 336 278 C432 222 516 256 606 196 L606 400 L44 400 Z" fill="#fff" opacity=".14"/>
<rect x="54" y="45" width="532" height="310" rx="28" fill="url(#panel)" filter="url(#shadow)"/>
<rect x="84" y="76" width="204" height="18" rx="9" fill="#0f172a" opacity=".12"/>
<rect x="84" y="107" width="138" height="12" rx="6" fill="#0f172a" opacity=".10"/>

<g transform="translate(106 158)"><path d="M16 76 C16 28 98 28 98 76" stroke="#0f172a" stroke-width="10" stroke-linecap="round" stroke-linejoin="round" fill="none" opacity=".9"/><rect x="0" y="66" width="28" height="46" rx="10" fill="#fff" stroke="#0f172a" stroke-width="7"/><rect x="86" y="66" width="28" height="46" rx="10" fill="#fff" stroke="#0f172a" stroke-width="7"/><path d="M100 112 C90 136 64 136 52 126" stroke="#0f172a" stroke-width="10" stroke-linecap="round" stroke-linejoin="round" fill="none" opacity=".9"/></g>
<g transform="translate(326 126)"><path d="M42 42 H228 V92 C204 92 204 134 228 134 V184 H42 V134 C66 134 66 92 42 92 Z" fill="#fce7f3" stroke="#0f172a" stroke-width="8"/><path d="M108 64 V162" stroke="#db2777" stroke-width="8" stroke-dasharray="10 12"/><circle cx="162" cy="112" r="36" fill="#c4b5fd" stroke="#0f172a" stroke-width="7"/><path d="M146 112 L158 124 L182 98" stroke="#0f172a" stroke-width="8" fill="none" stroke-linecap="round"/></g>
<path d="M86 310 H250" stroke="#0f172a" stroke-width="12" stroke-linecap="round" opacity=".12"/>
<path d="M86 333 H196" stroke="#0f172a" stroke-width="10" stroke-linecap="round" opacity=".10"/>
</svg>