<?xml version="1.0" encoding="UTF-8"?>
<svg xmlns="http://www.w3.org/2000/svg" width="640" height="400" viewBox="0 0 640 400" role="img" aria-labelledby="title desc">
<title id="title">Transporte TMS</title>
<desc id="desc">Ilustracion profesional para la tarjeta Transporte TMS del portal Powerful Control System.</desc>
<defs><linearGradient id="bg" x1="0" y1="0" x2="1" y2="1"><stop offset="0" stop-color="#0f172a"/><stop offset="1" stop-color="#0ea5e9"/></linearGradient><filter id="sh" x="-20%" y="-20%" width="140%" height="150%"><feDropShadow dx="0" dy="14" stdDeviation="16" flood-color="#020617" flood-opacity=".24"/></filter></defs><rect width="640" height="400" rx="34" fill="url(#bg)"/><circle cx="88" cy="78" r="118" fill="#fff" opacity=".12"/><circle cx="552" cy="320" r="142" fill="#020617" opacity=".14"/><rect x="54" y="45" width="532" height="310" rx="28" fill="#fff" opacity=".92" filter="url(#sh)"/><rect x="90" y="78" width="190" height="18" rx="9" fill="#0f172a" opacity=".12"/><rect x="90" y="108" width="132" height="12" rx="6" fill="#0f172a" opacity=".10"/><g transform="translate(322 126)"><rect x="24" y="58" width="138" height="88" rx="14" fill="#dbeafe" stroke="#0f172a" stroke-width="8"/><path d="M162 88 H220 L246 118 V146 H162 Z" fill="#93c5fd" stroke="#0f172a" stroke-width="8"/><circle cx="68" cy="158" r="20" fill="#0f172a"/><circle cx="204" cy="158" r="20" fill="#0f172a"/><path d="M52 34 H162 M80 14 H196" stroke="#0ea5e9" stroke-width="10" stroke-linecap="round"/></g><g transform="translate(96 156)"><path d="M60 0 C24 44 22 78 60 124 C98 78 96 44 60 0 Z" fill="#fff" stroke="#0f172a" stroke-width="7"/><circle cx="60" cy="44" r="18" fill="#0ea5e9"/></g><path d="M90 310 H250" stroke="#0f172a" stroke-width="12" stroke-linecap="round" opacity=".12"/><path d="M90 334 H205" stroke="#0f172a" stroke-width="10" stroke-linecap="round" opacity=".10"/>
</svg>