<?xml version="1.0" encoding="UTF-8"?>
<svg xmlns="http://www.w3.org/2000/svg" width="640" height="400" viewBox="0 0 640 400" role="img" aria-labelledby="title desc">
<title id="title">Veterinaria y pet shop</title>
<desc id="desc">Ilustracion profesional para la tarjeta Veterinaria y pet shop del portal Powerful Control System.</desc>
<defs><linearGradient id="bg" x1="0" y1="0" x2="1" y2="1"><stop offset="0" stop-color="#16a34a"/><stop offset="1" stop-color="#0ea5e9"/></linearGradient><filter id="sh" x="-20%" y="-20%" width="140%" height="150%"><feDropShadow dx="0" dy="14" stdDeviation="16" flood-color="#020617" flood-opacity=".24"/></filter></defs><rect width="640" height="400" rx="34" fill="url(#bg)"/><circle cx="88" cy="78" r="118" fill="#fff" opacity=".12"/><circle cx="552" cy="320" r="142" fill="#020617" opacity=".14"/><rect x="54" y="45" width="532" height="310" rx="28" fill="#fff" opacity=".92" filter="url(#sh)"/><rect x="90" y="78" width="190" height="18" rx="9" fill="#0f172a" opacity=".12"/><rect x="90" y="108" width="132" height="12" rx="6" fill="#0f172a" opacity=".10"/><g transform="translate(340 118)"><path d="M72 94 C52 52 96 36 116 78 C136 36 180 52 160 94 C198 104 190 156 150 150 C138 190 94 190 82 150 C42 156 34 104 72 94 Z" fill="#dcfce7" stroke="#0f172a" stroke-width="8"/><circle cx="78" cy="46" r="18" fill="#86efac" stroke="#0f172a" stroke-width="6"/><circle cx="154" cy="46" r="18" fill="#86efac" stroke="#0f172a" stroke-width="6"/></g><g transform="translate(100 160)"><rect width="126" height="104" rx="16" fill="#fff" stroke="#0f172a" stroke-width="7"/><path d="M63 26 V78 M36 52 H90" stroke="#16a34a" stroke-width="18" stroke-linecap="round"/></g><path d="M90 310 H250" stroke="#0f172a" stroke-width="12" stroke-linecap="round" opacity=".12"/><path d="M90 334 H205" stroke="#0f172a" stroke-width="10" stroke-linecap="round" opacity=".10"/>
</svg>