<svg xmlns="http://www.w3.org/2000/svg" viewBox="0 0 800 800" role="img" aria-labelledby="title desc">
  <title id="title">Ajedrez vs IA plus</title>
  <desc id="desc">Portada del juego Ajedrez vs IA plus</desc>
  <defs>
    <linearGradient id="bg4" x1="0" y1="0" x2="1" y2="1">
      <stop offset="0%" stop-color="#1e1b17"/>
      <stop offset="100%" stop-color="#3a342a"/>
    </linearGradient>
  </defs>
  <rect width="800" height="800" rx="54" fill="url(#bg4)"/>
  <g transform="translate(128 112)">
    <rect width="544" height="544" rx="26" fill="#a37d57"/>
    <g>
      <rect x="0" y="0" width="68" height="68" fill="#ebd8b9"/>
      <rect x="136" y="0" width="68" height="68" fill="#ebd8b9"/>
      <rect x="272" y="0" width="68" height="68" fill="#ebd8b9"/>
      <rect x="408" y="0" width="68" height="68" fill="#ebd8b9"/>
      <rect x="68" y="68" width="68" height="68" fill="#ebd8b9"/>
      <rect x="204" y="68" width="68" height="68" fill="#ebd8b9"/>
      <rect x="340" y="68" width="68" height="68" fill="#ebd8b9"/>
      <rect x="476" y="68" width="68" height="68" fill="#ebd8b9"/>
      <rect x="0" y="136" width="68" height="68" fill="#ebd8b9"/>
      <rect x="136" y="136" width="68" height="68" fill="#ebd8b9"/>
      <rect x="272" y="136" width="68" height="68" fill="#ebd8b9"/>
      <rect x="408" y="136" width="68" height="68" fill="#ebd8b9"/>
      <rect x="68" y="204" width="68" height="68" fill="#ebd8b9"/>
      <rect x="204" y="204" width="68" height="68" fill="#ebd8b9"/>
      <rect x="340" y="204" width="68" height="68" fill="#ebd8b9"/>
      <rect x="476" y="204" width="68" height="68" fill="#ebd8b9"/>
      <rect x="0" y="272" width="68" height="68" fill="#ebd8b9"/>
      <rect x="136" y="272" width="68" height="68" fill="#ebd8b9"/>
      <rect x="272" y="272" width="68" height="68" fill="#ebd8b9"/>
      <rect x="408" y="272" width="68" height="68" fill="#ebd8b9"/>
      <rect x="68" y="340" width="68" height="68" fill="#ebd8b9"/>
      <rect x="204" y="340" width="68" height="68" fill="#ebd8b9"/>
      <rect x="340" y="340" width="68" height="68" fill="#ebd8b9"/>
      <rect x="476" y="340" width="68" height="68" fill="#ebd8b9"/>
      <rect x="0" y="408" width="68" height="68" fill="#ebd8b9"/>
      <rect x="136" y="408" width="68" height="68" fill="#ebd8b9"/>
      <rect x="272" y="408" width="68" height="68" fill="#ebd8b9"/>
      <rect x="408" y="408" width="68" height="68" fill="#ebd8b9"/>
      <rect x="68" y="476" width="68" height="68" fill="#ebd8b9"/>
      <rect x="204" y="476" width="68" height="68" fill="#ebd8b9"/>
      <rect x="340" y="476" width="68" height="68" fill="#ebd8b9"/>
      <rect x="476" y="476" width="68" height="68" fill="#ebd8b9"/>
    </g>
    <text x="96" y="404" fill="#fffef8" font-family="Segoe UI Symbol, Segoe UI, serif" font-size="180">♔</text>
    <text x="308" y="246" fill="#241c16" font-family="Segoe UI Symbol, Segoe UI, serif" font-size="180">♞</text>
    <circle cx="456" cy="170" r="24" fill="#7fc8ff" opacity="0.78"/>
    <circle cx="456" cy="170" r="52" fill="none" stroke="#7fc8ff" stroke-width="8" opacity="0.46"/>
  </g>
  <text x="66" y="714" fill="#f8ecdd" font-family="Trebuchet MS, Segoe UI, sans-serif" font-size="58" font-weight="900">AJEDREZ VS IA</text>
  <text x="72" y="758" fill="#9ed2ff" font-family="Trebuchet MS, Segoe UI, sans-serif" font-size="32" font-weight="700">Plus · dificultad escalable · ayudas tacticas</text>
</svg>