<svg width="512" height="512" viewBox="0 0 512 512" fill="none" xmlns="http://www.w3.org/2000/svg">
  <defs>
    <linearGradient id="bg" x1="256" y1="32" x2="256" y2="480" gradientUnits="userSpaceOnUse">
      <stop stop-color="#89DBFF"/>
      <stop offset="0.58" stop-color="#5A7CF2"/>
      <stop offset="1" stop-color="#18284C"/>
    </linearGradient>
    <linearGradient id="floor" x1="256" y1="278" x2="256" y2="470" gradientUnits="userSpaceOnUse">
      <stop stop-color="#4467B4"/>
      <stop offset="1" stop-color="#1A2441"/>
    </linearGradient>
    <linearGradient id="hero" x1="161" y1="216" x2="258" y2="361" gradientUnits="userSpaceOnUse">
      <stop stop-color="#FF91C8"/>
      <stop offset="1" stop-color="#FF5B88"/>
    </linearGradient>
    <linearGradient id="gun" x1="165" y1="316" x2="271" y2="316" gradientUnits="userSpaceOnUse">
      <stop stop-color="#FFD86F"/>
      <stop offset="1" stop-color="#FF8D4D"/>
    </linearGradient>
  </defs>
  <rect width="512" height="512" rx="76" fill="url(#bg)"/>
  <circle cx="100" cy="88" r="54" fill="#FFF6D8" fill-opacity="0.58"/>
  <circle cx="404" cy="112" r="42" fill="#FFF6D8" fill-opacity="0.42"/>
  <path d="M88 286L256 170L424 286V448H88V286Z" fill="url(#floor)"/>
  <path d="M150 252L256 182L362 252V434H150V252Z" fill="#24355F"/>
  <path d="M172 272L256 216L340 272V434H172V272Z" fill="#304875"/>
  <path d="M203 292L256 258L309 292V434H203V292Z" fill="#3A5D93"/>
  <rect x="130" y="352" width="52" height="74" rx="22" fill="#7DE3C5"/>
  <circle cx="156" cy="332" r="20" fill="#FFE07D"/>
  <circle cx="386" cy="200" r="42" fill="#FFD9EE"/>
  <path d="M344 246C355 210 366 182 386 160C404 183 416 210 428 246" fill="#D98BFF"/>
  <rect x="345" y="244" width="82" height="112" rx="30" fill="#C46CFF"/>
  <rect x="358" y="272" width="56" height="18" rx="9" fill="#FFEED8"/>
  <rect x="354" y="352" width="20" height="64" rx="10" fill="#A958E3"/>
  <rect x="398" y="352" width="20" height="64" rx="10" fill="#A958E3"/>
  <circle cx="374" cy="196" r="7" fill="#11253C"/>
  <circle cx="398" cy="196" r="7" fill="#11253C"/>
  <path d="M374 218C382 225 392 225 400 218" stroke="#11253C" stroke-width="7" stroke-linecap="round"/>
  <path d="M353 176C360 166 370 160 386 158C402 160 412 166 419 176" stroke="#FFEEF7" stroke-width="10" stroke-linecap="round"/>
  <path d="M332 324C349 294 372 281 386 278C400 281 423 294 440 324" fill="#8EDCFF" fill-opacity="0.72"/>
  <circle cx="226" cy="226" r="48" fill="url(#hero)"/>
  <circle cx="209" cy="216" r="9" fill="#11253C"/>
  <circle cx="242" cy="216" r="9" fill="#11253C"/>
  <path d="M208 244C217 256 236 256 245 244" stroke="#11253C" stroke-width="8" stroke-linecap="round"/>
  <rect x="182" y="260" width="90" height="116" rx="34" fill="#FF6E9E"/>
  <rect x="166" y="300" width="116" height="32" rx="16" fill="url(#gun)"/>
  <rect x="248" y="306" width="48" height="18" rx="9" fill="#8EDCFF"/>
  <circle cx="309" cy="315" r="28" fill="#FFE07D" fill-opacity="0.85"/>
  <circle cx="309" cy="315" r="14" fill="#FFF7D6"/>
  <path d="M92 76C123 45 167 41 200 65" stroke="#FFF7D6" stroke-width="18" stroke-linecap="round"/>
  <path d="M341 84C364 62 395 57 422 72" stroke="#FFF7D6" stroke-width="16" stroke-linecap="round"/>
  <text x="50%" y="468" text-anchor="middle" fill="#FFF7F0" font-family="Trebuchet MS, Arial, sans-serif" font-size="36" font-weight="900">BRIGADA BURBUJAS 3D</text>
</svg>