<svg xmlns="http://www.w3.org/2000/svg" viewBox="0 0 800 800" role="img" aria-labelledby="title desc">
  <title id="title">Pacman plus</title>
  <desc id="desc">Portada del juego Pacman plus</desc>
  <defs>
    <linearGradient id="bg" x1="0" y1="0" x2="1" y2="1">
      <stop offset="0%" stop-color="#071224"/>
      <stop offset="100%" stop-color="#15345f"/>
    </linearGradient>
  </defs>
  <rect width="800" height="800" rx="54" fill="url(#bg)"/>
  <g opacity="0.16" stroke="#8dc2ff" stroke-width="14" fill="none">
    <path d="M90 110h220v120H198v120h168v116H110V110Z"/>
    <path d="M430 110h270v118H566v120h108v116H438V110Z"/>
    <path d="M110 540h590v150H110Z"/>
  </g>
  <circle cx="290" cy="398" r="122" fill="#ffe25a"/>
  <path d="M290 398 395 330A122 122 0 1 0 396 466Z" fill="#15345f"/>
  <circle cx="518" cy="350" r="70" fill="#ff6f6f"/>
  <path d="M448 350a70 70 0 0 1 140 0v72H448Z" fill="#ff6f6f"/>
  <circle cx="492" cy="344" r="14" fill="#fff"/>
  <circle cx="544" cy="344" r="14" fill="#fff"/>
  <circle cx="496" cy="346" r="6" fill="#1d233b"/>
  <circle cx="540" cy="346" r="6" fill="#1d233b"/>
  <circle cx="612" cy="402" r="12" fill="#fff7cf"/>
  <circle cx="658" cy="402" r="12" fill="#fff7cf"/>
  <circle cx="704" cy="402" r="12" fill="#fff7cf"/>
  <text x="70" y="676" fill="#fff6ea" font-family="Trebuchet MS, Segoe UI, sans-serif" font-size="74" font-weight="900">PACMAN</text>
  <text x="74" y="735" fill="#8dc2ff" font-family="Trebuchet MS, Segoe UI, sans-serif" font-size="34" font-weight="700">Plus · niveles · fantasmas IA · pausa real</text>
</svg>