<svg xmlns="http://www.w3.org/2000/svg" viewBox="0 0 1200 1200" role="img" aria-labelledby="title desc">
  <title id="title">Patito volando</title>
  <desc id="desc">Portada ilustrada del juego Patito volando.</desc>
  <defs>
    <linearGradient id="sky" x1="0" y1="0" x2="0" y2="1">
      <stop offset="0%" stop-color="#f6fff0"/>
      <stop offset="56%" stop-color="#7ad7ff"/>
      <stop offset="56%" stop-color="#84d769"/>
      <stop offset="100%" stop-color="#2e7f3f"/>
    </linearGradient>
    <linearGradient id="pipe" x1="0" y1="0" x2="0" y2="1">
      <stop offset="0%" stop-color="#3bb36a"/>
      <stop offset="100%" stop-color="#1f6635"/>
    </linearGradient>
    <radialGradient id="glow" cx="0.3" cy="0.2" r="0.8">
      <stop offset="0%" stop-color="#ffffff" stop-opacity="0.85"/>
      <stop offset="100%" stop-color="#ffffff" stop-opacity="0"/>
    </radialGradient>
  </defs>
  <rect width="1200" height="1200" fill="url(#sky)"/>
  <rect width="1200" height="1200" fill="url(#glow)"/>
  <g fill="#ffffff" fill-opacity="0.94">
    <ellipse cx="230" cy="200" rx="120" ry="56"/>
    <ellipse cx="320" cy="174" rx="84" ry="70"/>
    <ellipse cx="410" cy="208" rx="100" ry="58"/>
    <ellipse cx="842" cy="280" rx="110" ry="50"/>
    <ellipse cx="910" cy="250" rx="76" ry="60"/>
    <ellipse cx="990" cy="286" rx="96" ry="54"/>
  </g>
  <rect x="878" y="170" width="150" height="430" rx="38" fill="url(#pipe)"/>
  <rect x="856" y="150" width="194" height="64" rx="28" fill="#4ac67c"/>
  <rect x="850" y="742" width="164" height="458" rx="38" fill="url(#pipe)"/>
  <rect x="824" y="722" width="214" height="68" rx="28" fill="#4ac67c"/>
  <ellipse cx="566" cy="1028" rx="750" ry="204" fill="#37944a" fill-opacity="0.82"/>
  <g transform="translate(314 574) rotate(-10)">
    <circle cx="0" cy="0" r="156" fill="#ffd95c"/>
    <circle cx="-24" cy="28" r="124" fill="#ffc145" fill-opacity="0.34"/>
    <circle cx="-38" cy="-28" r="16" fill="#123047"/>
    <circle cx="34" cy="-24" r="16" fill="#123047"/>
    <path d="M130 8 L246 48 L132 92 Z" fill="#f57f21"/>
    <ellipse cx="-20" cy="26" rx="68" ry="42" fill="#fff5b4" fill-opacity="0.78"/>
    <path d="M-110 72 C-176 28 -172 -38 -82 -76" fill="none" stroke="#ff9f3e" stroke-width="26" stroke-linecap="round"/>
  </g>
  <g font-family="Segoe UI, Arial, sans-serif" fill="#123047">
    <text x="86" y="100" font-size="66" font-weight="700" opacity="0.72">JUEGO RAPIDO</text>
    <text x="82" y="976" font-size="124" font-weight="900">PATITO</text>
    <text x="82" y="1084" font-size="124" font-weight="900">VOLANDO</text>
    <text x="84" y="1150" font-size="42" font-weight="700" opacity="0.75">Esquiva obstaculos y gana altura con un solo control</text>
  </g>
</svg>