<svg xmlns="http://www.w3.org/2000/svg" viewBox="0 0 1200 1200" role="img" aria-labelledby="title desc">
  <title id="title">Pollitos al cataplum</title>
  <desc id="desc">Portada ilustrada del juego Pollitos al cataplum.</desc>
  <defs>
    <linearGradient id="sky" x1="0" y1="0" x2="0" y2="1">
      <stop offset="0%" stop-color="#fef8df"/>
      <stop offset="55%" stop-color="#8fdefe"/>
      <stop offset="100%" stop-color="#4b9144"/>
    </linearGradient>
    <linearGradient id="wood" x1="0" y1="0" x2="0" y2="1">
      <stop offset="0%" stop-color="#8b592e"/>
      <stop offset="100%" stop-color="#4b2d16"/>
    </linearGradient>
    <linearGradient id="crate" x1="0" y1="0" x2="1" y2="1">
      <stop offset="0%" stop-color="#e0b37a"/>
      <stop offset="100%" stop-color="#9b6033"/>
    </linearGradient>
  </defs>
  <rect width="1200" height="1200" fill="url(#sky)"/>
  <ellipse cx="570" cy="1050" rx="820" ry="240" fill="#63ae58"/>
  <ellipse cx="980" cy="1060" rx="360" ry="130" fill="#3d7a39" fill-opacity="0.68"/>
  <g fill="#ffffff" fill-opacity="0.95">
    <ellipse cx="224" cy="188" rx="116" ry="54"/>
    <ellipse cx="302" cy="166" rx="74" ry="60"/>
    <ellipse cx="380" cy="194" rx="100" ry="56"/>
  </g>
  <g transform="translate(196 736)">
    <rect x="0" y="-250" width="32" height="286" rx="16" fill="url(#wood)"/>
    <rect x="84" y="-250" width="32" height="286" rx="16" fill="url(#wood)"/>
    <path d="M16 -236 C62 -174 94 -152 154 -132" fill="none" stroke="#4a2915" stroke-width="18" stroke-linecap="round"/>
    <path d="M100 -236 C148 -166 192 -140 244 -120" fill="none" stroke="#4a2915" stroke-width="18" stroke-linecap="round"/>
    <circle cx="172" cy="-120" r="76" fill="#ffe774"/>
    <circle cx="154" cy="-98" r="58" fill="#ffcf53" fill-opacity="0.38"/>
    <circle cx="148" cy="-138" r="8" fill="#123047"/>
    <circle cx="192" cy="-132" r="8" fill="#123047"/>
    <path d="M232 -118 L280 -132 L278 -96 Z" fill="#f47a20"/>
  </g>
  <g transform="translate(710 684)">
    <rect x="0" y="172" width="122" height="122" rx="18" fill="url(#crate)" stroke="#6a3f1c" stroke-width="8"/>
    <rect x="138" y="172" width="122" height="122" rx="18" fill="url(#crate)" stroke="#6a3f1c" stroke-width="8"/>
    <rect x="276" y="172" width="122" height="122" rx="18" fill="url(#crate)" stroke="#6a3f1c" stroke-width="8"/>
    <rect x="138" y="32" width="122" height="122" rx="18" fill="url(#crate)" stroke="#6a3f1c" stroke-width="8"/>
    <line x1="18" y1="194" x2="104" y2="272" stroke="#f3e1c8" stroke-width="8" opacity="0.35"/>
    <line x1="104" y1="194" x2="18" y2="272" stroke="#f3e1c8" stroke-width="8" opacity="0.35"/>
    <line x1="156" y1="54" x2="242" y2="132" stroke="#f3e1c8" stroke-width="8" opacity="0.35"/>
    <line x1="242" y1="54" x2="156" y2="132" stroke="#f3e1c8" stroke-width="8" opacity="0.35"/>
    <circle cx="446" cy="208" r="68" fill="#ea6751"/>
    <circle cx="418" cy="188" r="10" fill="#fff7f5"/>
    <circle cx="474" cy="188" r="10" fill="#fff7f5"/>
    <rect x="406" y="232" width="84" height="10" rx="5" fill="#862018"/>
  </g>
  <g font-family="Segoe UI, Arial, sans-serif" fill="#143047">
    <text x="86" y="96" font-size="64" font-weight="700" opacity="0.7">RESORTERA ARCADE</text>
    <text x="84" y="974" font-size="108" font-weight="900">POLLITOS</text>
    <text x="84" y="1074" font-size="108" font-weight="900">AL CATAPLUM</text>
    <text x="86" y="1144" font-size="40" font-weight="700" opacity="0.78">Dispara, tumba cajas y limpia objetivos con pocos lanzamientos</text>
  </g>
</svg>