<svg xmlns="http://www.w3.org/2000/svg" viewBox="0 0 1200 1200" role="img" aria-labelledby="title desc">
  <title id="title">Rebote de bloques</title>
  <desc id="desc">Portada ilustrada del juego Rebote de bloques.</desc>
  <defs>
    <linearGradient id="arena" x1="0" y1="0" x2="0" y2="1">
      <stop offset="0%" stop-color="#fff2d5"/>
      <stop offset="100%" stop-color="#ff9554"/>
    </linearGradient>
  </defs>
  <rect width="1200" height="1200" fill="#0c1830"/>
  <rect x="76" y="76" width="1048" height="1048" rx="42" fill="#102849" stroke="#2e4b74" stroke-width="8"/>
  <g>
    <rect x="186" y="194" width="174" height="66" rx="18" fill="#ff7b5c"/>
    <rect x="386" y="194" width="174" height="66" rx="18" fill="#ffbc4a"/>
    <rect x="586" y="194" width="174" height="66" rx="18" fill="#74d46d"/>
    <rect x="786" y="194" width="174" height="66" rx="18" fill="#55c5ff"/>
    <rect x="286" y="292" width="174" height="66" rx="18" fill="#ff9d6b"/>
    <rect x="486" y="292" width="174" height="66" rx="18" fill="#ffe26a"/>
    <rect x="686" y="292" width="174" height="66" rx="18" fill="#89ea80"/>
    <rect x="186" y="390" width="174" height="66" rx="18" fill="#ffa17d"/>
    <rect x="386" y="390" width="174" height="66" rx="18" fill="#ffd87b"/>
    <rect x="586" y="390" width="174" height="66" rx="18" fill="#8cf7b1"/>
    <rect x="786" y="390" width="174" height="66" rx="18" fill="#7fd3ff"/>
  </g>
  <circle cx="704" cy="696" r="30" fill="#ffffff"/>
  <path d="M704 696 L824 564" stroke="#ffffff" stroke-width="10" stroke-dasharray="20 16" stroke-linecap="round" opacity="0.75"/>
  <rect x="466" y="924" width="268" height="42" rx="21" fill="url(#arena)"/>
  <circle cx="824" cy="564" r="22" fill="#fff7e8" opacity="0.52"/>
  <g font-family="Segoe UI, Arial, sans-serif" fill="#f5fbff">
    <text x="86" y="104" font-size="58" font-weight="700" opacity="0.78">ARCADE CLASICO</text>
    <text x="82" y="976" font-size="108" font-weight="900">REBOTE</text>
    <text x="82" y="1076" font-size="108" font-weight="900">DE BLOQUES</text>
    <text x="86" y="1142" font-size="40" font-weight="700" opacity="0.82">Rompe filas, cuida la pelota y limpia cada ronda</text>
  </g>
</svg>