<svg xmlns="http://www.w3.org/2000/svg" viewBox="0 0 1200 1200" role="img" aria-labelledby="title desc">
  <title id="title">Serpiente pixel</title>
  <desc id="desc">Portada ilustrada del juego Serpiente pixel.</desc>
  <defs>
    <linearGradient id="bg" x1="0" y1="0" x2="1" y2="1">
      <stop offset="0%" stop-color="#0f1f31"/>
      <stop offset="100%" stop-color="#15385d"/>
    </linearGradient>
  </defs>
  <rect width="1200" height="1200" fill="url(#bg)"/>
  <g opacity="0.25" stroke="#4fe6b3" stroke-width="2">
    <path d="M0 150 H1200"/>
    <path d="M0 300 H1200"/>
    <path d="M0 450 H1200"/>
    <path d="M0 600 H1200"/>
    <path d="M0 750 H1200"/>
    <path d="M0 900 H1200"/>
    <path d="M0 1050 H1200"/>
    <path d="M150 0 V1200"/>
    <path d="M300 0 V1200"/>
    <path d="M450 0 V1200"/>
    <path d="M600 0 V1200"/>
    <path d="M750 0 V1200"/>
    <path d="M900 0 V1200"/>
    <path d="M1050 0 V1200"/>
  </g>
  <g>
    <rect x="226" y="646" width="122" height="122" rx="22" fill="#44d48c"/>
    <rect x="348" y="646" width="122" height="122" rx="22" fill="#3bc380"/>
    <rect x="470" y="646" width="122" height="122" rx="22" fill="#32b575"/>
    <rect x="592" y="646" width="122" height="122" rx="22" fill="#2aa86d"/>
    <rect x="714" y="646" width="122" height="122" rx="22" fill="#21a267"/>
    <rect x="714" y="524" width="122" height="122" rx="22" fill="#1d995f"/>
    <rect x="714" y="402" width="122" height="122" rx="22" fill="#1a8e59"/>
    <rect x="714" y="280" width="122" height="122" rx="22" fill="#179055"/>
    <rect x="836" y="280" width="122" height="122" rx="22" fill="#18a25f"/>
    <rect x="958" y="280" width="122" height="122" rx="22" fill="#21b76b"/>
    <circle cx="1008" cy="334" r="12" fill="#102234"/>
    <circle cx="1050" cy="334" r="12" fill="#102234"/>
  </g>
  <g>
    <circle cx="270" cy="306" r="54" fill="#ff6361"/>
    <path d="M244 332 C264 292 292 292 308 330" fill="#ffd7d7" fill-opacity="0.5"/>
    <path d="M218 250 L238 196" stroke="#86d95a" stroke-width="16" stroke-linecap="round"/>
  </g>
  <g font-family="Consolas, Segoe UI, monospace" fill="#f3fffe">
    <text x="84" y="106" font-size="58" font-weight="700" opacity="0.78">RETRO GRID</text>
    <text x="82" y="958" font-size="108" font-weight="900">SERPIENTE</text>
    <text x="82" y="1056" font-size="108" font-weight="900">PIXEL</text>
    <text x="86" y="1138" font-size="42" font-weight="700" opacity="0.82">Come frutas, alarga la cola y sobrevive en la cuadricula</text>
  </g>
</svg>