<svg xmlns="http://www.w3.org/2000/svg" viewBox="0 0 800 800" role="img" aria-labelledby="title desc">
  <title id="title">Tetris plus</title>
  <desc id="desc">Portada del juego Tetris plus</desc>
  <defs>
    <linearGradient id="bg2" x1="0" y1="0" x2="0" y2="1">
      <stop offset="0%" stop-color="#12182f"/>
      <stop offset="100%" stop-color="#262e58"/>
    </linearGradient>
  </defs>
  <rect width="800" height="800" rx="54" fill="url(#bg2)"/>
  <g opacity="0.1" stroke="#dbe8ff" stroke-width="6">
    <path d="M180 120v560M260 120v560M340 120v560M420 120v560M500 120v560M580 120v560"/>
    <path d="M140 160h520M140 240h520M140 320h520M140 400h520M140 480h520M140 560h520M140 640h520"/>
  </g>
  <g transform="translate(182 160)">
    <rect x="0" y="280" width="76" height="76" rx="14" fill="#7ddcff"/>
    <rect x="76" y="280" width="76" height="76" rx="14" fill="#7ddcff"/>
    <rect x="152" y="280" width="76" height="76" rx="14" fill="#7ddcff"/>
    <rect x="228" y="280" width="76" height="76" rx="14" fill="#7ddcff"/>
    <rect x="76" y="204" width="76" height="76" rx="14" fill="#ffb068"/>
    <rect x="152" y="204" width="76" height="76" rx="14" fill="#ffb068"/>
    <rect x="228" y="204" width="76" height="76" rx="14" fill="#ffb068"/>
    <rect x="228" y="128" width="76" height="76" rx="14" fill="#ffb068"/>
    <rect x="0" y="128" width="76" height="76" rx="14" fill="#8fe76d"/>
    <rect x="76" y="128" width="76" height="76" rx="14" fill="#8fe76d"/>
    <rect x="76" y="52" width="76" height="76" rx="14" fill="#8fe76d"/>
    <rect x="152" y="52" width="76" height="76" rx="14" fill="#d39cff"/>
    <rect x="228" y="52" width="76" height="76" rx="14" fill="#d39cff"/>
    <rect x="304" y="52" width="76" height="76" rx="14" fill="#d39cff"/>
    <rect x="228" y="-24" width="76" height="76" rx="14" fill="#d39cff"/>
  </g>
  <text x="78" y="692" fill="#f9fbff" font-family="Trebuchet MS, Segoe UI, sans-serif" font-size="74" font-weight="900">TETRIS</text>
  <text x="82" y="744" fill="#9fd4ff" font-family="Trebuchet MS, Segoe UI, sans-serif" font-size="34" font-weight="700">Plus · lineas · poderes · vidas</text>
</svg>