<?xml version="1.0" encoding="UTF-8"?>
<svg xmlns="http://www.w3.org/2000/svg" width="1200" height="3600" viewBox="0 0 1200 3600">
  <style>
    .node { fill: #ffffff; stroke: #2b6cb0; stroke-width: 2; rx:8; ry:8 }
    .node-text { font-family: Arial, Helvetica, sans-serif; font-size:14px; fill:#0a0a0a }
    .title { font-family: Arial, Helvetica, sans-serif; font-size:18px; font-weight:700; fill:#1a202c }
    .line { stroke:#94a3b8; stroke-width:1.5 }
  </style>

  <!-- Root -->
  <g>
    <rect x="460" y="20" width="280" height="40" class="node" rx="6" ry="6"/>
    <text x="600" y="47" text-anchor="middle" class="title">Administrar Empresa</text>
  </g>

  <!-- Left column nodes -->
  <!-- positions: x=120 for left column text boxes -->
  <!-- y spacing 80 starting at 120 -->

  <!-- List left column items -->
  <g id="left">
    <!-- 1 Inicio -->
    <rect x="80" y="120" width="220" height="34" class="node"/>
    <text x="190" y="143" class="node-text">Inicio</text>

    <!-- 2 Ventas -->
    <rect x="80" y="210" width="220" height="34" class="node"/>
    <text x="190" y="233" class="node-text">Ventas</text>

    <!-- 3 Carrito -->
    <rect x="80" y="300" width="220" height="34" class="node"/>
    <text x="190" y="323" class="node-text">Carrito de compras</text>

    <!-- 4 Venta pública y pagos -->
    <rect x="80" y="390" width="220" height="34" class="node"/>
    <text x="190" y="413" class="node-text">Venta pública y pagos</text>

    <!-- 5 Productos (MENÚ) -->
    <rect x="80" y="480" width="220" height="34" class="node"/>
    <text x="190" y="503" class="node-text">Productos (MENÚ)</text>

    <!-- subnodes Productos -->
    <rect x="340" y="460" width="220" height="30" class="node"/>
    <text x="450" y="480" class="node-text">Administrar productos</text>
    <line x1="300" y1="497" x2="340" y2="497" class="line" />

    <rect x="340" y="500" width="220" height="30" class="node"/>
    <text x="450" y="520" class="node-text">Bodegas</text>
    <line x1="300" y1="517" x2="340" y2="517" class="line" />

    <rect x="340" y="540" width="220" height="30" class="node"/>
    <text x="450" y="560" class="node-text">Categorías</text>
    <line x1="300" y1="557" x2="340" y2="557" class="line" />

    <rect x="340" y="580" width="220" height="30" class="node"/>
    <text x="450" y="600" class="node-text">Precios</text>
    <line x1="300" y1="597" x2="340" y2="597" class="line" />

    <!-- 6 Combos -->
    <rect x="80" y="700" width="220" height="34" class="node"/>
    <text x="190" y="723" class="node-text">Combos de productos</text>

    <!-- 7 Códigos de descuento -->
    <rect x="80" y="790" width="220" height="34" class="node"/>
    <text x="190" y="813" class="node-text">Códigos de descuento</text>

    <!-- 8 Compras -->
    <rect x="80" y="880" width="220" height="34" class="node"/>
    <text x="190" y="903" class="node-text">Compras</text>

    <!-- 9 Configuración (MENÚ) -->
    <rect x="80" y="970" width="220" height="34" class="node"/>
    <text x="190" y="993" class="node-text">Configuración (MENÚ)</text>

    <!-- subnodes Config -->
    <rect x="340" y="950" width="220" height="30" class="node"/>
    <text x="450" y="970" class="node-text">General</text>
    <line x1="300" y1="977" x2="340" y2="977" class="line" />

    <rect x="340" y="990" width="220" height="30" class="node"/>
    <text x="450" y="1010" class="node-text">Permisos</text>
    <line x1="300" y1="1007" x2="340" y2="1007" class="line" />

    <rect x="340" y="1030" width="220" height="30" class="node"/>
    <text x="450" y="1050" class="node-text">Avanzada</text>
    <line x1="300" y1="1047" x2="340" y2="1047" class="line" />

    <rect x="340" y="1070" width="220" height="30" class="node"/>
    <text x="450" y="1090" class="node-text">Integraciones</text>
    <line x1="300" y1="1087" x2="340" y2="1087" class="line" />

    <!-- 10 Usuarios -->
    <rect x="80" y="1170" width="220" height="34" class="node"/>
    <text x="190" y="1193" class="node-text">Usuarios</text>

    <!-- 11 Asistencia -->
    <rect x="80" y="1260" width="220" height="34" class="node"/>
    <text x="190" y="1283" class="node-text">Asistencia de empleados</text>

    <!-- 12 Nómina -->
    <rect x="80" y="1350" width="220" height="34" class="node"/>
    <text x="190" y="1373" class="node-text">Nómina de sueldos</text>

    <!-- 13 Vehículos -->
    <rect x="80" y="1440" width="220" height="34" class="node"/>
    <text x="190" y="1463" class="node-text">Registro de vehículos</text>

    <!-- 14 Auditoría -->
    <rect x="80" y="1530" width="220" height="34" class="node"/>
    <text x="190" y="1553" class="node-text">Auditoría</text>

    <!-- 15 Chat y tareas -->
    <rect x="80" y="1620" width="220" height="34" class="node"/>
    <text x="190" y="1643" class="node-text">Chat y tareas</text>

    <!-- 16 Clientes -->
    <rect x="80" y="1710" width="220" height="34" class="node"/>
    <text x="190" y="1733" class="node-text">Clientes</text>

    <!-- 17 Facturación electrónica -->
    <rect x="80" y="1800" width="220" height="34" class="node"/>
    <text x="190" y="1823" class="node-text">Facturación electrónica</text>

    <!-- 18 Facturas electrónicas -->
    <rect x="80" y="1890" width="220" height="34" class="node"/>
    <text x="190" y="1913" class="node-text">Facturas electrónicas</text>
  </g>

  <!-- Right column nodes -->
  <g id="right">
    <!-- starting x=760 -->
    <!-- 19 ERP extendido -->
    <rect x="760" y="120" width="280" height="34" class="node"/>
    <text x="900" y="143" class="node-text">ERP extendido</text>

    <!-- 20 Chat con IA -->
    <rect x="760" y="210" width="280" height="34" class="node"/>
    <text x="900" y="233" class="node-text">Chat con IA</text>

    <!-- 21 Finanzas -->
    <rect x="760" y="300" width="280" height="34" class="node"/>
    <text x="900" y="323" class="node-text">Finanzas</text>

    <!-- 22 Créditos y cartera -->
    <rect x="760" y="390" width="280" height="34" class="node"/>
    <text x="900" y="413" class="node-text">Créditos y cartera</text>

    <!-- 23 Backups empresariales -->
    <rect x="760" y="480" width="280" height="34" class="node"/>
    <text x="900" y="503" class="node-text">Backups empresariales</text>

    <!-- 24 Soporte remoto -->
    <rect x="760" y="570" width="280" height="34" class="node"/>
    <text x="900" y="593" class="node-text">Soporte remoto</text>

    <!-- 25 Propinas -->
    <rect x="760" y="660" width="280" height="34" class="node"/>
    <text x="900" y="683" class="node-text">Propinas</text>

    <!-- 26 Comisiones -->
    <rect x="760" y="750" width="280" height="34" class="node"/>
    <text x="900" y="773" class="node-text">Comisiones</text>

    <!-- 27 Ubicación GPS -->
    <rect x="760" y="840" width="280" height="34" class="node"/>
    <text x="900" y="863" class="node-text">Ubicación GPS</text>

    <!-- 28 Configuración de estaciones -->
    <rect x="760" y="930" width="280" height="34" class="node"/>
    <text x="900" y="953" class="node-text">Configuración de estaciones</text>

    <!-- 29 Tarifas por minutos -->
    <rect x="760" y="1020" width="280" height="34" class="node"/>
    <text x="900" y="1043" class="node-text">Tarifas por minutos</text>

    <!-- 30 Tarifas por día -->
    <rect x="760" y="1110" width="280" height="34" class="node"/>
    <text x="900" y="1133" class="node-text">Tarifas por día</text>

    <!-- 31 Estaciones -->
    <rect x="760" y="1200" width="280" height="34" class="node"/>
    <text x="900" y="1223" class="node-text">Estaciones</text>

    <!-- 32 Reservas -->
    <rect x="760" y="1290" width="280" height="34" class="node"/>
    <text x="900" y="1313" class="node-text">Reservas</text>

    <!-- 33 Reportes (MENÚ) -->
    <rect x="760" y="1380" width="280" height="34" class="node"/>
    <text x="900" y="1403" class="node-text">Reportes (MENÚ)</text>

    <!-- subnodes Reportes -->
    <rect x="520" y="1360" width="200" height="30" class="node"/>
    <text x="620" y="1380" class="node-text">Reportes generales</text>
    <line x1="760" y1="1417" x2="720" y2="1417" class="line" />

    <rect x="520" y="1400" width="200" height="30" class="node"/>
    <text x="620" y="1420" class="node-text">Inventario</text>
    <line x1="760" y1="1457" x2="720" y2="1457" class="line" />

    <rect x="520" y="1440" width="200" height="30" class="node"/>
    <text x="620" y="1460" class="node-text">Finanzas</text>
    <line x1="760" y1="1497" x2="720" y2="1497" class="line" />

    <rect x="520" y="1480" width="200" height="30" class="node"/>
    <text x="620" y="1500" class="node-text">Gráficos y estadísticas</text>
    <line x1="760" y1="1537" x2="720" y2="1537" class="line" />

    <!-- 34 Calculadora -->
    <rect x="760" y="1600" width="280" height="34" class="node"/>
    <text x="900" y="1623" class="node-text">Calculadora</text>

    <!-- 35 Volver a empresas -->
    <rect x="760" y="1690" width="280" height="34" class="node"/>
    <text x="900" y="1713" class="node-text">Volver a empresas</text>
  </g>

  <!-- Lines from root to top-level items (two sample lines to show connectivity) -->
  <!-- Left column connections (draw a few representative lines) -->
  <line x1="600" y1="60" x2="190" y2="137" class="line" />
  <line x1="600" y1="60" x2="190" y2="233" class="line" />
  <line x1="600" y1="60" x2="190" y2="323" class="line" />
  <line x1="600" y1="60" x2="190" y2="413" class="line" />
  <line x1="600" y1="60" x2="190" y2="503" class="line" />

  <!-- Right column connections (sample) -->
  <line x1="600" y1="60" x2="900" y2="143" class="line" />
  <line x1="600" y1="60" x2="900" y2="323" class="line" />
  <line x1="600" y1="60" x2="900" y2="503" class="line" />

</svg>
