<svg width="1800" height="1280" viewBox="0 0 1800 1280" fill="none" xmlns="http://www.w3.org/2000/svg">
  <defs>
    <linearGradient id="bg" x1="90" y1="60" x2="1710" y2="1220" gradientUnits="userSpaceOnUse">
      <stop stop-color="#F4F8FC"/>
      <stop offset="1" stop-color="#E6EEF6"/>
    </linearGradient>
    <linearGradient id="leftPanel" x1="120" y1="170" x2="860" y2="1120" gradientUnits="userSpaceOnUse">
      <stop stop-color="#123B5D"/>
      <stop offset="1" stop-color="#184F72"/>
    </linearGradient>
    <linearGradient id="rightPanel" x1="940" y1="170" x2="1680" y2="1120" gradientUnits="userSpaceOnUse">
      <stop stop-color="#283348"/>
      <stop offset="1" stop-color="#3D4E69"/>
    </linearGradient>
    <linearGradient id="boxBlue" x1="0" y1="0" x2="1" y2="1">
      <stop stop-color="#3A86FF"/>
      <stop offset="1" stop-color="#275DB0"/>
    </linearGradient>
    <linearGradient id="boxGreen" x1="0" y1="0" x2="1" y2="1">
      <stop stop-color="#1FA67A"/>
      <stop offset="1" stop-color="#177D61"/>
    </linearGradient>
    <linearGradient id="boxOrange" x1="0" y1="0" x2="1" y2="1">
      <stop stop-color="#F28B39"/>
      <stop offset="1" stop-color="#C96B23"/>
    </linearGradient>
    <linearGradient id="boxViolet" x1="0" y1="0" x2="1" y2="1">
      <stop stop-color="#7B61FF"/>
      <stop offset="1" stop-color="#5641C0"/>
    </linearGradient>
    <filter id="shadow" x="-20%" y="-20%" width="140%" height="140%">
      <feDropShadow dx="0" dy="14" stdDeviation="18" flood-color="#0E2135" flood-opacity="0.16"/>
    </filter>
    <marker id="arrowLight" viewBox="0 0 10 10" refX="8" refY="5" markerWidth="7" markerHeight="7" orient="auto-start-reverse">
      <path d="M0 0L10 5L0 10Z" fill="#DCEBFF"/>
    </marker>
    <marker id="arrowDark" viewBox="0 0 10 10" refX="8" refY="5" markerWidth="7" markerHeight="7" orient="auto-start-reverse">
      <path d="M0 0L10 5L0 10Z" fill="#6D86A2"/>
    </marker>
    <style>
      .title { font: 700 40px 'Segoe UI', Arial, sans-serif; fill: #10253C; }
      .subtitle { font: 500 18px 'Segoe UI', Arial, sans-serif; fill: #46617D; }
      .panelTitle { font: 700 25px 'Segoe UI', Arial, sans-serif; fill: #FFFFFF; }
      .panelText { font: 500 15px 'Segoe UI', Arial, sans-serif; fill: #DCEAF8; }
      .boxTitle { font: 700 18px 'Segoe UI', Arial, sans-serif; fill: #FFFFFF; }
      .boxText { font: 500 13px 'Segoe UI', Arial, sans-serif; fill: #ECF5FF; }
      .footer { font: 600 14px 'Segoe UI', Arial, sans-serif; fill: #D5E2EF; }
      .chip { font: 700 14px 'Segoe UI', Arial, sans-serif; fill: #17324D; }
    </style>
  </defs>

  <rect width="1800" height="1280" fill="url(#bg)"/>
  <text x="96" y="82" class="title">Diagrama entidad relacion</text>
  <text x="96" y="115" class="subtitle">Resumen canonico del nucleo relacional de Powerful Control System</text>

  <rect x="96" y="158" width="770" height="1060" rx="34" fill="url(#leftPanel)" filter="url(#shadow)"/>
  <rect x="934" y="158" width="770" height="1060" rx="34" fill="url(#rightPanel)" filter="url(#shadow)"/>

  <text x="132" y="214" class="panelTitle">Base pcs_empresas</text>
  <text x="132" y="242" class="panelText">Nucleo multiempresa: usuarios, clientes, catalogo, ventas, finanzas, CRM y backups</text>
  <text x="970" y="214" class="panelTitle">Base pcs_superadministrador</text>
  <text x="970" y="242" class="panelText">Gobierno SaaS: roles, licencias, configuraciones, tickets y comunicaciones globales</text>

  <rect x="132" y="288" width="206" height="108" rx="22" fill="url(#boxBlue)"/>
  <text x="154" y="328" class="boxTitle">empresas</text>
  <text x="154" y="352" class="boxText">id PK</text>
  <text x="154" y="372" class="boxText">nombre, slug, estado</text>

  <rect x="384" y="288" width="206" height="108" rx="22" fill="url(#boxGreen)"/>
  <text x="406" y="328" class="boxTitle">users</text>
  <text x="406" y="352" class="boxText">id PK, empresa_id FK</text>
  <text x="406" y="372" class="boxText">rol_usuario_id, email</text>

  <rect x="636" y="288" width="194" height="108" rx="22" fill="url(#boxGreen)"/>
  <text x="658" y="328" class="boxTitle">clientes</text>
  <text x="658" y="352" class="boxText">id PK, empresa_id FK</text>
  <text x="658" y="372" class="boxText">documento, nombre</text>

  <rect x="132" y="444" width="206" height="108" rx="22" fill="url(#boxOrange)"/>
  <text x="154" y="484" class="boxTitle">categorias_productos</text>
  <text x="154" y="508" class="boxText">id PK, empresa_id FK</text>
  <text x="154" y="528" class="boxText">codigo, nombre</text>

  <rect x="384" y="444" width="206" height="108" rx="22" fill="url(#boxOrange)"/>
  <text x="406" y="484" class="boxTitle">productos</text>
  <text x="406" y="508" class="boxText">id PK, empresa_id FK</text>
  <text x="406" y="528" class="boxText">categoria_id, sku</text>

  <rect x="636" y="444" width="194" height="108" rx="22" fill="url(#boxOrange)"/>
  <text x="658" y="484" class="boxTitle">servicios</text>
  <text x="658" y="508" class="boxText">id PK, empresa_id FK</text>
  <text x="658" y="528" class="boxText">codigo, categoria</text>

  <rect x="132" y="604" width="230" height="118" rx="22" fill="url(#boxBlue)"/>
  <text x="156" y="646" class="boxTitle">carritos_compras</text>
  <text x="156" y="670" class="boxText">id PK, empresa_id FK</text>
  <text x="156" y="690" class="boxText">cliente_id, canal_venta</text>

  <rect x="410" y="604" width="230" height="118" rx="22" fill="url(#boxBlue)"/>
  <text x="434" y="646" class="boxTitle">carrito_compra_items</text>
  <text x="434" y="670" class="boxText">id PK, empresa_id FK</text>
  <text x="434" y="690" class="boxText">carrito_id, referencia_id</text>

  <rect x="688" y="604" width="142" height="118" rx="22" fill="url(#boxOrange)"/>
  <text x="710" y="646" class="boxTitle">crm_leads</text>
  <text x="710" y="670" class="boxText">id PK</text>
  <text x="710" y="690" class="boxText">empresa_id</text>

  <rect x="132" y="776" width="248" height="118" rx="22" fill="url(#boxGreen)"/>
  <text x="156" y="818" class="boxTitle">empresa_finanzas_movimientos</text>
  <text x="156" y="842" class="boxText">id PK, empresa_id FK</text>
  <text x="156" y="862" class="boxText">tipo, total, documento_codigo</text>

  <rect x="426" y="776" width="248" height="118" rx="22" fill="url(#boxGreen)"/>
  <text x="450" y="818" class="boxTitle">empresa_facturacion_documentos</text>
  <text x="450" y="842" class="boxText">id PK, empresa_id FK</text>
  <text x="450" y="862" class="boxText">tipo_documento, documento_codigo</text>

  <rect x="720" y="776" width="110" height="118" rx="22" fill="url(#boxOrange)"/>
  <text x="740" y="818" class="boxTitle">crm_</text>
  <text x="740" y="840" class="boxTitle">interacciones</text>
  <text x="740" y="864" class="boxText">lead_id</text>

  <rect x="132" y="948" width="248" height="118" rx="22" fill="url(#boxViolet)"/>
  <text x="156" y="990" class="boxTitle">empresa_backups</text>
  <text x="156" y="1014" class="boxText">id PK, empresa_id FK</text>
  <text x="156" y="1034" class="boxText">codigo, nombre</text>

  <rect x="426" y="948" width="248" height="118" rx="22" fill="url(#boxViolet)"/>
  <text x="450" y="990" class="boxTitle">empresa_backups_restauraciones</text>
  <text x="450" y="1014" class="boxText">id PK, empresa_id FK</text>
  <text x="450" y="1034" class="boxText">backup_id, codigo_backup</text>

  <path d="M338 342C356 342 362 342 384 342" stroke="#DCEBFF" stroke-width="5" marker-end="url(#arrowLight)"/>
  <path d="M338 342C464 342 540 342 636 342" stroke="#DCEBFF" stroke-width="5" marker-end="url(#arrowLight)"/>
  <path d="M338 342C338 454 338 474 338 498" stroke="#DCEBFF" stroke-width="5" marker-end="url(#arrowLight)"/>
  <path d="M486 396C486 418 486 424 486 444" stroke="#DCEBFF" stroke-width="5" marker-end="url(#arrowLight)"/>
  <path d="M734 396C734 418 734 424 734 444" stroke="#DCEBFF" stroke-width="5" marker-end="url(#arrowLight)"/>
  <path d="M734 396C734 500 246 500 246 604" stroke="#DCEBFF" stroke-width="5" marker-end="url(#arrowLight)"/>
  <path d="M734 396C734 500 758 500 758 604" stroke="#DCEBFF" stroke-width="5" marker-end="url(#arrowLight)"/>
  <path d="M246 722C246 748 246 752 246 776" stroke="#DCEBFF" stroke-width="5" marker-end="url(#arrowLight)"/>
  <path d="M246 722C246 842 256 842 256 948" stroke="#DCEBFF" stroke-width="5" marker-end="url(#arrowLight)"/>
  <path d="M640 664C658 664 672 664 688 664" stroke="#DCEBFF" stroke-width="5" marker-end="url(#arrowLight)"/>
  <path d="M640 664C640 742 550 742 550 776" stroke="#DCEBFF" stroke-width="5" marker-end="url(#arrowLight)"/>
  <path d="M640 664C640 948 550 948 550 948" stroke="#DCEBFF" stroke-width="5" marker-end="url(#arrowLight)"/>
  <path d="M590 498C608 498 616 498 636 498" stroke="#DCEBFF" stroke-width="5" marker-end="url(#arrowLight)"/>
  <path d="M830 664C848 664 858 664 870 664" stroke="#DCEBFF" stroke-width="5" marker-end="url(#arrowLight)"/>

  <rect x="970" y="288" width="188" height="108" rx="22" fill="url(#boxBlue)"/>
  <text x="992" y="328" class="boxTitle">tipos_de_empresas</text>
  <text x="992" y="352" class="boxText">id PK</text>
  <text x="992" y="372" class="boxText">nombre, estado</text>

  <rect x="1200" y="288" width="188" height="108" rx="22" fill="url(#boxGreen)"/>
  <text x="1222" y="328" class="boxTitle">roles_de_usuario</text>
  <text x="1222" y="352" class="boxText">id PK</text>
  <text x="1222" y="372" class="boxText">tipo_empresa_id</text>

  <rect x="1430" y="288" width="230" height="108" rx="22" fill="url(#boxGreen)"/>
  <text x="1454" y="328" class="boxTitle">roles_de_usuario_permisos</text>
  <text x="1454" y="352" class="boxText">id PK</text>
  <text x="1454" y="372" class="boxText">rol_id, modulo, accion</text>

  <rect x="970" y="444" width="188" height="108" rx="22" fill="url(#boxOrange)"/>
  <text x="992" y="484" class="boxTitle">licencias</text>
  <text x="992" y="508" class="boxText">id PK</text>
  <text x="992" y="528" class="boxText">empresa_id, tipo_id</text>

  <rect x="1200" y="444" width="188" height="108" rx="22" fill="url(#boxOrange)"/>
  <text x="1222" y="484" class="boxTitle">tipo_empresa_</text>
  <text x="1222" y="506" class="boxTitle">preconfiguraciones</text>
  <text x="1222" y="530" class="boxText">tipo_empresa_id</text>

  <rect x="1430" y="444" width="230" height="108" rx="22" fill="url(#boxBlue)"/>
  <text x="1454" y="484" class="boxTitle">administradores</text>
  <text x="1454" y="508" class="boxText">id PK</text>
  <text x="1454" y="528" class="boxText">email, role, estado</text>

  <rect x="970" y="604" width="188" height="118" rx="22" fill="url(#boxViolet)"/>
  <text x="992" y="646" class="boxTitle">super_tickets_ayuda</text>
  <text x="992" y="670" class="boxText">id PK, empresa_id FK</text>
  <text x="992" y="690" class="boxText">codigo, prioridad, estado</text>

  <rect x="1200" y="604" width="230" height="118" rx="22" fill="url(#boxViolet)"/>
  <text x="1224" y="646" class="boxTitle">super_ticket_ayuda_mensajes</text>
  <text x="1224" y="670" class="boxText">id PK, ticket_id FK</text>
  <text x="1224" y="690" class="boxText">autor_tipo, interno</text>

  <rect x="1472" y="604" width="188" height="118" rx="22" fill="url(#boxBlue)"/>
  <text x="1494" y="646" class="boxTitle">configuraciones</text>
  <text x="1494" y="670" class="boxText">id PK</text>
  <text x="1494" y="690" class="boxText">config_key</text>

  <rect x="970" y="776" width="220" height="118" rx="22" fill="url(#boxGreen)"/>
  <text x="994" y="818" class="boxTitle">super_correos_masivos</text>
  <text x="994" y="842" class="boxText">id PK</text>
  <text x="994" y="862" class="boxText">categoria, asunto, estado</text>

  <rect x="1232" y="776" width="282" height="118" rx="22" fill="url(#boxGreen)"/>
  <text x="1256" y="818" class="boxTitle">super_correos_masivos_destinatarios</text>
  <text x="1256" y="842" class="boxText">id PK, correo_masivo_id FK</text>
  <text x="1256" y="862" class="boxText">empresa_id, destinatario_email</text>

  <rect x="1556" y="776" width="104" height="118" rx="22" fill="url(#boxOrange)"/>
  <text x="1578" y="818" class="boxTitle">sesiones</text>
  <text x="1578" y="842" class="boxText">id PK</text>
  <text x="1578" y="862" class="boxText">admin_id</text>

  <path d="M1158 342C1174 342 1184 342 1200 342" stroke="#6D86A2" stroke-width="5" marker-end="url(#arrowDark)"/>
  <path d="M1388 342C1402 342 1412 342 1430 342" stroke="#6D86A2" stroke-width="5" marker-end="url(#arrowDark)"/>
  <path d="M1064 396C1064 418 1064 424 1064 444" stroke="#6D86A2" stroke-width="5" marker-end="url(#arrowDark)"/>
  <path d="M1064 396C1064 418 1294 418 1294 444" stroke="#6D86A2" stroke-width="5" marker-end="url(#arrowDark)"/>
  <path d="M1064 552C1064 574 1064 580 1064 604" stroke="#6D86A2" stroke-width="5" marker-end="url(#arrowDark)"/>
  <path d="M1158 664C1172 664 1180 664 1200 664" stroke="#6D86A2" stroke-width="5" marker-end="url(#arrowDark)"/>
  <path d="M1080 722C1080 748 1080 752 1080 776" stroke="#6D86A2" stroke-width="5" marker-end="url(#arrowDark)"/>
  <path d="M1190 835C1208 835 1216 835 1232 835" stroke="#6D86A2" stroke-width="5" marker-end="url(#arrowDark)"/>
  <path d="M1514 835C1528 835 1540 835 1556 835" stroke="#6D86A2" stroke-width="5" marker-end="url(#arrowDark)"/>

  <path d="M830 996C940 996 940 664 970 664" stroke="#C3D8F0" stroke-width="5" stroke-dasharray="12 12" marker-end="url(#arrowLight)"/>
  <path d="M338 342C910 342 910 498 970 498" stroke="#C3D8F0" stroke-width="5" stroke-dasharray="12 12" marker-end="url(#arrowLight)"/>
  <path d="M338 342C910 342 910 838 1232 838" stroke="#C3D8F0" stroke-width="5" stroke-dasharray="12 12" marker-end="url(#arrowLight)"/>

  <rect x="122" y="1142" width="1556" height="88" rx="20" fill="#132536" opacity="0.96"/>
  <text x="148" y="1178" class="footer">Lectura rapida</text>
  <text x="148" y="1204" class="footer">`empresas` es la raiz multiempresa. `licencias` gobierna capacidades por compania desde superadministracion. Tickets y correos globales tambien enlazan con `empresa_id` para la operacion SaaS.</text>

  <rect x="1468" y="72" width="232" height="48" rx="14" fill="#E8F0F8"/>
  <text x="1492" y="102" class="chip">Fuente: documentos/estructura_bd.md</text>
</svg>
