<svg xmlns="http://www.w3.org/2000/svg" viewBox="0 0 720 720" role="img" aria-labelledby="title desc">
  <title id="title">Motel Calipso</title>
  <desc id="desc">Logo con luna, ola y estrella para Motel Calipso.</desc>
  <defs>
    <linearGradient id="calipsoBg" x1="128" x2="592" y1="92" y2="628" gradientUnits="userSpaceOnUse">
      <stop offset="0" stop-color="#102a43"/>
      <stop offset="0.46" stop-color="#0f5f78"/>
      <stop offset="1" stop-color="#16a6a6"/>
    </linearGradient>
    <linearGradient id="calipsoWave" x1="150" x2="570" y1="426" y2="426" gradientUnits="userSpaceOnUse">
      <stop offset="0" stop-color="#e7f8ff"/>
      <stop offset="1" stop-color="#8ee7e3"/>
    </linearGradient>
    <filter id="softShadow" x="-20%" y="-20%" width="140%" height="140%">
      <feDropShadow dx="0" dy="18" stdDeviation="16" flood-color="#052029" flood-opacity="0.22"/>
    </filter>
  </defs>
  <rect width="720" height="720" rx="92" fill="#f8fbfc"/>
  <circle cx="360" cy="330" r="238" fill="url(#calipsoBg)" filter="url(#softShadow)"/>
  <circle cx="304" cy="242" r="76" fill="#ffe7a3"/>
  <circle cx="332" cy="218" r="72" fill="url(#calipsoBg)"/>
  <path d="M185 399c47-42 97-42 151 0 50 39 100 39 150 0 20-16 42-25 66-27 22-2 42 4 60 16-16 50-47 93-90 124-47 34-101 51-162 51-67 0-126-20-176-60-29-23-51-51-66-84 22 1 44-6 67-20Z" fill="url(#calipsoWave)"/>
  <path d="M160 445c44 23 91 22 142-3 50-24 95-24 137 0 47 26 94 27 141 1" fill="none" stroke="#0b4053" stroke-width="18" stroke-linecap="round"/>
  <path d="M498 178l14 30 32 5-23 23 6 32-29-15-29 15 6-32-23-23 32-5 14-30Z" fill="#ffffff"/>
  <text x="360" y="618" text-anchor="middle" font-family="Montserrat, Arial, sans-serif" font-size="64" font-weight="800" letter-spacing="2" fill="#102a43">MOTEL</text>
  <text x="360" y="676" text-anchor="middle" font-family="Montserrat, Arial, sans-serif" font-size="58" font-weight="900" letter-spacing="3" fill="#0f7f8a">CALIPSO</text>
</svg>
