<svg xmlns="http://www.w3.org/2000/svg" viewBox="0 0 256 256" role="img" aria-labelledby="title desc">
  <title id="title">Logo sistema para consultorios odontológicos</title>
  <desc id="desc">Logo con diente estilizado, brillo clínico y fondo azul petróleo.</desc>
  <defs>
    <linearGradient id="bg" x1="0%" y1="0%" x2="100%" y2="100%">
      <stop offset="0%" stop-color="#0e3240"/>
      <stop offset="100%" stop-color="#1f6d88"/>
    </linearGradient>
    <linearGradient id="tooth" x1="0%" y1="0%" x2="100%" y2="100%">
      <stop offset="0%" stop-color="#ffffff"/>
      <stop offset="100%" stop-color="#dff8ff"/>
    </linearGradient>
  </defs>
  <rect x="16" y="16" width="224" height="224" rx="56" fill="url(#bg)"/>
  <path d="M128 58c-33 0-58 20-58 56 0 28 15 51 24 66 9 15 14 39 30 39 15 0 17-18 18-31 1-12 5-19 16-19s15 7 16 19c1 13 3 31 18 31 16 0 21-24 30-39 9-15 24-38 24-66 0-36-25-56-58-56-15 0-24 8-32 8s-17-8-28-8z" fill="url(#tooth)"/>
  <path d="M118 68c-21 4-34 19-34 44 0 8 2 15 4 22" fill="none" stroke="#9fddef" stroke-linecap="round" stroke-width="10"/>
  <path d="M172 74l8 10 12-2-6 10 6 10-12-2-8 10-2-12-11-6 11-6z" fill="#8ff2df"/>
</svg>
