<?xml version="1.0" encoding="UTF-8"?>
<svg xmlns="http://www.w3.org/2000/svg" viewBox="0 0 24 24">
  <g fill="none" stroke="none">
    <path fill="#dc2626" d="M12 8.4a3.6 3.6 0 1 0 0 7.2 3.6 3.6 0 0 0 0-7.2Zm9.1 2.9-1.55-.26a7.8 7.8 0 0 0-.58-1.39l.92-1.27a1.3 1.3 0 0 0-.15-1.67l-1.44-1.44a1.3 1.3 0 0 0-1.67-.15l-1.27.92c-.45-.22-.9-.42-1.39-.58L12.7 2.9a1.3 1.3 0 0 0-1.4-1.08h-2.04a1.3 1.3 0 0 0-1.29 1.08l-.26 1.55c-.48.16-.94.36-1.39.58l-1.27-.92a1.3 1.3 0 0 0-1.67.15L1.94 5.7a1.3 1.3 0 0 0-.15 1.67l.92 1.27c-.22.45-.42.9-.58 1.39l-1.55.26A1.3 1.3 0 0 0-.5 12.6v2.04a1.3 1.3 0 0 0 1.08 1.29l1.55.26c.16.48.36.94.58 1.39l-.92 1.27a1.3 1.3 0 0 0 .15 1.67l1.44 1.44c.46.46 1.18.51 1.67.15l1.27-.92c.45.22.9.42 1.39.58l.26 1.55a1.3 1.3 0 0 0 1.29 1.08h2.04c.64 0 1.18-.46 1.29-1.08l.26-1.55c.48-.16.94-.36 1.39-.58l1.27.92c.5.36 1.21.31 1.67-.15l1.44-1.44c.46-.46.51-1.18.15-1.67l-.92-1.27c.22-.45.42-.9.58-1.39l1.55-.26a1.3 1.3 0 0 0 1.08-1.29V12.6c0-.64-.46-1.18-1.08-1.3ZM12 17.4a5.4 5.4 0 1 1 0-10.8 5.4 5.4 0 0 1 0 10.8Z"/>
  </g>
</svg>
