<?xml version="1.0" encoding="UTF-8"?>
<svg xmlns="http://www.w3.org/2000/svg" viewBox="0 0 64 64" role="img" aria-label="IA">
  <defs>
    <linearGradient id="g" x1="12" y1="6" x2="52" y2="58" gradientUnits="userSpaceOnUse">
      <stop stop-color="#111827"/>
      <stop offset="0.55" stop-color="#0f172a"/>
      <stop offset="1" stop-color="#020617"/>
    </linearGradient>
  </defs>
  <circle cx="32" cy="32" r="29" fill="url(#g)"/>
  <path d="M32 7.5 36.2 12l6.1-1.3 2 5.8 6 1.8-1.1 6.2 4.5 4.3-3.6 5.2 2.3 5.8-5.6 2.8-1.1 6.1-6.3.2-4.2 4.6-5.2-3.5-6 1.6-2.4-5.8-5.8-2.4 1.6-6-3.5-5.2 4.6-4.2.2-6.3 6.1-1.1 2.8-5.6 5.8 2.3 5.2-3.6Z" fill="#111827" stroke="#f8fafc" stroke-width="3" stroke-linejoin="round"/>
  <circle cx="32" cy="32" r="18.5" fill="#0b1220" stroke="#f8fafc" stroke-width="2.8"/>
  <path d="M23.5 24.5h17M23.5 39.5h17M24.5 24.5v15M39.5 24.5v15" fill="none" stroke="#94a3b8" stroke-width="1.7" stroke-linecap="round" opacity=".65"/>
  <text x="32" y="37.6" text-anchor="middle" font-family="Arial, Helvetica, sans-serif" font-size="15" font-weight="900" fill="#ffffff" letter-spacing=".7">IA</text>
</svg>
