<?xml version="1.0" encoding="UTF-8"?>
<svg xmlns="http://www.w3.org/2000/svg" viewBox="0 0 64 64" role="img" aria-label="IA">
  <defs>
    <linearGradient id="g" x1="12" y1="6" x2="52" y2="58" gradientUnits="userSpaceOnUse">
      <stop stop-color="#111827"/>
      <stop offset="0.55" stop-color="#0f172a"/>
      <stop offset="1" stop-color="#020617"/>
    </linearGradient>
  </defs>
  <circle cx="32" cy="32" r="29" fill="url(#g)"/>
  <path d="M32 9.5c4.2 0 7.7 2.7 9 6.4 3.7-.8 7.7.7 9.8 4.3 2.1 3.7 1.5 8.1-1.2 10.9 2.7 2.8 3.3 7.2 1.2 10.9-2.1 3.6-6.1 5.1-9.8 4.3-1.3 3.7-4.8 6.4-9 6.4s-7.7-2.7-9-6.4c-3.7.8-7.7-.7-9.8-4.3-2.1-3.7-1.5-8.1 1.2-10.9-2.7-2.8-3.3-7.2-1.2-10.9 2.1-3.6 6.1-5.1 9.8-4.3 1.3-3.7 4.8-6.4 9-6.4Z" fill="none" stroke="#e5e7eb" stroke-width="3.4" stroke-linecap="round" stroke-linejoin="round"/>
  <path d="M23 16l18 10.4v20.8M41 16 23 26.4v20.8M14.5 31.1h35" fill="none" stroke="#e5e7eb" stroke-width="3.4" stroke-linecap="round" stroke-linejoin="round" opacity=".92"/>
  <text x="32" y="38.4" text-anchor="middle" font-family="Arial, Helvetica, sans-serif" font-size="14" font-weight="900" fill="#ffffff" letter-spacing=".5">IA</text>
</svg>
