<?xml version="1.0" encoding="UTF-8"?>
<svg xmlns="http://www.w3.org/2000/svg" viewBox="0 0 24 24">
  <g fill="none" fill-rule="evenodd">
    <path d="M12 15.5A3.5 3.5 0 1 0 12 8.5a3.5 3.5 0 0 0 0 7z" fill="#ffd58a"/>
    <path d="M19.4 15a1 1 0 0 0 .2 1.1l.9.9a1 1 0 0 1 0 1.4l-1.1 1.1a1 1 0 0 1-1.4 0l-.9-.9a1 1 0 0 0-1.1-.2 6.5 6.5 0 0 1-1.8.5 6.5 6.5 0 0 1-1.8-.5 1 1 0 0 0-1.1.2l-.9.9a1 1 0 0 1-1.4 0L4.5 17.4a1 1 0 0 1 0-1.4l.9-.9a1 1 0 0 0 .2-1.1 6.5 6.5 0 0 1-.5-1.8 6.5 6.5 0 0 1 .5-1.8 1 1 0 0 0-.2-1.1l-.9-.9a1 1 0 0 1 0-1.4L6.6 3.3a1 1 0 0 1 1.4 0l.9.9c.3.3.8.4 1.1.2.6-.3 1.2-.5 1.8-.5.6 0 1.2.2 1.8.5.4.2.9.1 1.1-.2l.9-.9a1 1 0 0 1 1.4 0l1.1 1.1a1 1 0 0 1 0 1.4l-.9.9c-.3.3-.4.8-.2 1.1.3.6.5 1.2.5 1.8 0 .6-.2 1.2-.5 1.8z" fill="#ffb84d" opacity="0.95"/>
  </g>
</svg>
