<svg xmlns="http://www.w3.org/2000/svg" viewBox="0 0 64 64" role="img" aria-label="Energia solar">
  <defs>
    <linearGradient id="solarPanel" x1="10" x2="54" y1="22" y2="50" gradientUnits="userSpaceOnUse">
      <stop stop-color="#38bdf8"/>
      <stop offset="1" stop-color="#2563eb"/>
    </linearGradient>
    <linearGradient id="solarSun" x1="28" x2="48" y1="4" y2="24" gradientUnits="userSpaceOnUse">
      <stop stop-color="#fde047"/>
      <stop offset="1" stop-color="#f97316"/>
    </linearGradient>
  </defs>
  <circle cx="42" cy="16" r="9" fill="url(#solarSun)"/>
  <g fill="none" stroke="#f59e0b" stroke-linecap="round" stroke-width="3">
    <path d="M42 2v4M42 26v4M28 16h4M52 16h4M32 6l3 3M49 23l3 3M52 6l-3 3M35 23l-3 3"/>
  </g>
  <path fill="url(#solarPanel)" d="M12 26h34a4 4 0 0 1 3.8 2.7l7.6 22A3 3 0 0 1 54.6 55H9.4a3 3 0 0 1-2.8-4l7.6-22A4 4 0 0 1 18 26z"/>
  <g fill="none" stroke="#dbeafe" stroke-width="2">
    <path d="M16 34h36M12 44h44M24 27l-5 27M34 27v27M44 27l5 27"/>
  </g>
  <path fill="#0f172a" opacity=".18" d="M8 52h48v3H8z"/>
</svg>
