<svg xmlns="http://www.w3.org/2000/svg" viewBox="0 0 256 256" role="img" aria-labelledby="title desc">
  <title id="title">Logo sistema para manejo de turnos</title>
  <desc id="desc">Logo con ticket, reloj y pantalla de llamado sobre fondo azul electrico.</desc>
  <defs>
    <linearGradient id="bg" x1="0%" y1="0%" x2="100%" y2="100%">
      <stop offset="0%" stop-color="#1d2f6f"/>
      <stop offset="100%" stop-color="#0f9fbc"/>
    </linearGradient>
    <linearGradient id="ticket" x1="0%" y1="0%" x2="100%" y2="100%">
      <stop offset="0%" stop-color="#ffffff"/>
      <stop offset="100%" stop-color="#dff8ff"/>
    </linearGradient>
  </defs>
  <rect x="16" y="16" width="224" height="224" rx="56" fill="url(#bg)"/>
  <path d="M72 74h112c8 0 14 6 14 14v22c-10 3-16 10-16 18s6 15 16 18v22c0 8-6 14-14 14H72c-8 0-14-6-14-14v-22c10-3 16-10 16-18s-6-15-16-18V88c0-8 6-14 14-14z" fill="url(#ticket)"/>
  <path d="M96 112h64M96 140h44" stroke="#1d6d88" stroke-width="11" stroke-linecap="round"/>
  <circle cx="172" cy="138" r="28" fill="#ffe7bf"/>
  <path d="M172 122v17l12 8" stroke="#9a3412" stroke-width="8" stroke-linecap="round" stroke-linejoin="round"/>
  <path d="M88 202h80" stroke="#8ff2df" stroke-width="12" stroke-linecap="round"/>
</svg>
