<svg xmlns="http://www.w3.org/2000/svg" viewBox="0 0 256 256" role="img" aria-labelledby="title desc">
  <title id="title">Logo sistema para vehiculos y flotas</title>
  <desc id="desc">Logo con camioneta, ruta GPS y marcador sobre fondo azul verde.</desc>
  <defs>
    <linearGradient id="bg" x1="0%" y1="0%" x2="100%" y2="100%">
      <stop offset="0%" stop-color="#12324a"/>
      <stop offset="100%" stop-color="#0f766e"/>
    </linearGradient>
    <linearGradient id="vehicle" x1="0%" y1="0%" x2="100%" y2="100%">
      <stop offset="0%" stop-color="#ffffff"/>
      <stop offset="100%" stop-color="#d9fff6"/>
    </linearGradient>
  </defs>
  <rect x="16" y="16" width="224" height="224" rx="56" fill="url(#bg)"/>
  <path d="M66 136l16-36c4-10 13-16 24-16h48c11 0 20 6 24 16l16 36v46H66z" fill="url(#vehicle)"/>
  <path d="M94 122h72l-8-20c-2-5-7-8-13-8h-30c-6 0-11 3-13 8z" fill="#2b7890"/>
  <circle cx="96" cy="184" r="14" fill="#14324d"/>
  <circle cx="164" cy="184" r="14" fill="#14324d"/>
  <path d="M76 68c24-17 50-20 78-10 16 6 30 6 42 0" fill="none" stroke="#8ff2df" stroke-width="10" stroke-linecap="round" stroke-dasharray="2 18"/>
  <path d="M184 50c16 0 28 12 28 28 0 22-28 48-28 48s-28-26-28-48c0-16 12-28 28-28z" fill="#ffe7bf"/>
  <circle cx="184" cy="78" r="10" fill="#b45309"/>
</svg>
