<svg xmlns="http://www.w3.org/2000/svg" viewBox="0 0 1024 1024" role="img" aria-label="PCS logo concepto control core">

  <defs>
    <linearGradient id="core-blue" x1="0" x2="1" y1="0" y2="1">
      <stop offset="0" stop-color="#38d5ff"/>
      <stop offset="0.48" stop-color="#0878df"/>
      <stop offset="1" stop-color="#05306f"/>
    </linearGradient>
    <linearGradient id="core-steel" x1="0" x2="1" y1="0" y2="1">
      <stop offset="0" stop-color="#f8fbff"/>
      <stop offset="1" stop-color="#aeb8c5"/>
    </linearGradient>
    <linearGradient id="core-bolt" x1="0" x2="1" y1="0" y2="1">
      <stop offset="0" stop-color="#fff76b"/>
      <stop offset="0.42" stop-color="#ffb000"/>
      <stop offset="1" stop-color="#ff4d00"/>
    </linearGradient>
    <filter id="core-shadow" x="-20%" y="-20%" width="140%" height="140%">
      <feDropShadow dx="0" dy="24" stdDeviation="24" flood-color="#020617" flood-opacity="0.32"/>
    </filter>
  </defs>
<rect width="1024" height="1024" rx="220" fill="#07111f"/>
<circle cx="512" cy="512" r="408" fill="url(#core-blue)" opacity=".18"/>
<g filter="url(#core-shadow)">
  <rect x="190" y="176" width="644" height="444" rx="78" fill="url(#core-blue)" stroke="#dff7ff" stroke-width="20"/>
  <rect x="250" y="240" width="524" height="296" rx="38" fill="#eaf8ff"/>
  <path d="M312 392c31-92 119-148 224-148 89 0 156 30 205 82l-91 88c-28-32-67-50-116-50-67 0-115 36-135 96h151l-44 106H286c1-61 10-119 26-174z" fill="#063d8f"/>
  <path d="M545 148 390 500h137l-62 376 184-446H516l29-282z" fill="url(#core-bolt)" stroke="#0b1220" stroke-width="13" stroke-linejoin="round"/>
  <rect x="394" y="650" width="236" height="70" rx="26" fill="#aeb8c5"/>
  <rect x="292" y="734" width="440" height="92" rx="40" fill="#d7dee8" stroke="#0b1220" stroke-width="18"/>
</g>
</svg>