<svg xmlns="http://www.w3.org/2000/svg" viewBox="0 0 1024 1024" role="img" aria-label="PCS logo concepto pulse circuit">

  <defs>
    <linearGradient id="pulse-blue" x1="0" x2="1" y1="0" y2="1">
      <stop offset="0" stop-color="#38d5ff"/>
      <stop offset="0.48" stop-color="#0878df"/>
      <stop offset="1" stop-color="#05306f"/>
    </linearGradient>
    <linearGradient id="pulse-steel" x1="0" x2="1" y1="0" y2="1">
      <stop offset="0" stop-color="#f8fbff"/>
      <stop offset="1" stop-color="#aeb8c5"/>
    </linearGradient>
    <linearGradient id="pulse-bolt" x1="0" x2="1" y1="0" y2="1">
      <stop offset="0" stop-color="#fff76b"/>
      <stop offset="0.42" stop-color="#ffb000"/>
      <stop offset="1" stop-color="#ff4d00"/>
    </linearGradient>
    <filter id="pulse-shadow" x="-20%" y="-20%" width="140%" height="140%">
      <feDropShadow dx="0" dy="24" stdDeviation="24" flood-color="#020617" flood-opacity="0.32"/>
    </filter>
  </defs>
<rect width="1024" height="1024" rx="512" fill="#07111f"/>
<circle cx="512" cy="512" r="390" fill="none" stroke="url(#pulse-blue)" stroke-width="34"/>
<circle cx="512" cy="512" r="308" fill="#0d1b2f"/>
<g stroke="#35d5ff" stroke-width="18" stroke-linecap="round" opacity=".78">
  <path d="M150 512h124m476 0h124M512 150v118m0 488v118"/>
  <path d="M236 248l76 76m400 400 76 76M788 248l-76 76m-400 400-76 76"/>
</g>
<g fill="#35d5ff">
  <circle cx="150" cy="512" r="28"/><circle cx="874" cy="512" r="28"/><circle cx="512" cy="150" r="28"/><circle cx="512" cy="874" r="28"/>
</g>
<text x="512" y="580" text-anchor="middle" font-family="Montserrat, Arial Black, Arial, sans-serif" font-size="250" font-weight="900" fill="#eef9ff" letter-spacing="-18">PCS</text>
<path d="M536 214 396 528h122l-48 282 166-370H516l20-226z" fill="url(#pulse-bolt)" stroke="#07111f" stroke-width="13" stroke-linejoin="round"/>
</svg>