<svg xmlns="http://www.w3.org/2000/svg" viewBox="0 0 1024 1024" role="img" aria-label="PCS logo concepto nexus shield">

  <defs>
    <linearGradient id="shield-blue" x1="0" x2="1" y1="0" y2="1">
      <stop offset="0" stop-color="#38d5ff"/>
      <stop offset="0.48" stop-color="#0878df"/>
      <stop offset="1" stop-color="#05306f"/>
    </linearGradient>
    <linearGradient id="shield-steel" x1="0" x2="1" y1="0" y2="1">
      <stop offset="0" stop-color="#f8fbff"/>
      <stop offset="1" stop-color="#aeb8c5"/>
    </linearGradient>
    <linearGradient id="shield-bolt" x1="0" x2="1" y1="0" y2="1">
      <stop offset="0" stop-color="#fff76b"/>
      <stop offset="0.42" stop-color="#ffb000"/>
      <stop offset="1" stop-color="#ff4d00"/>
    </linearGradient>
    <filter id="shield-shadow" x="-20%" y="-20%" width="140%" height="140%">
      <feDropShadow dx="0" dy="24" stdDeviation="24" flood-color="#020617" flood-opacity="0.32"/>
    </filter>
  </defs>
<rect width="1024" height="1024" rx="120" fill="#f6fbff"/>
<g filter="url(#shield-shadow)">
  <path d="M512 92 842 258v249c0 207-133 347-330 425-197-78-330-218-330-425V258L512 92z" fill="#07111f"/>
  <path d="M512 150 786 288v216c0 164-98 281-274 352-176-71-274-188-274-352V288l274-138z" fill="url(#shield-blue)"/>
  <path d="M292 522c0-142 92-250 232-250 89 0 156 38 199 96l-95 85c-25-39-63-59-109-59-66 0-111 50-111 128 0 77 45 128 111 128 48 0 86-22 112-62l94 86c-43 58-110 98-201 98-140 0-232-107-232-250z" fill="#eef9ff"/>
  <path d="M543 186 392 521h128l-58 304 178-390H519l24-249z" fill="url(#shield-bolt)" stroke="#07111f" stroke-width="12" stroke-linejoin="round"/>
  <text x="512" y="858" text-anchor="middle" font-family="Montserrat, Arial, sans-serif" font-size="84" font-weight="900" fill="#eef9ff" letter-spacing="10">PCS</text>
</g>
</svg>